<?xml version="1.0" encoding="UTF-8" standalone="no"?>
<svg xmlns="http://www.w3.org/2000/svg" xmlns:xlink="http://www.w3.org/1999/xlink" width="297.000mm" height="210.000mm" viewBox="0.000000 0.000000 297.000000 210.000000" stroke-linejoin="round" stroke-linecap="round" fill="none" fill-rule="evenodd"><desc>Composer Export</desc><script type="text/ecmascript"><![CDATA[
if(typeof(top) != "undefined")
{
	top.ShowPaper = ShowPaper;
}
function ShowHotSpot(evt,hotspotid)
{
	var svgDocument = evt.target.ownerDocument;
	var strId = "hotspot."+hotspotid;
	var hotspot = svgDocument.getElementById(strId);
	if(hotspot)
		hotspot.setAttribute("opacity",".5");
}
function HideHotSpot(evt,hotspotid)
{
	var svgDocument = evt.target.ownerDocument;
	var strId = "hotspot."+hotspotid;
	var hotspot = svgDocument.getElementById(strId);
	if(hotspot)
		hotspot.setAttribute("opacity","0");

	var toolTip = svgDocument.getElementById('ToolTip');
	if(toolTip)
		toolTip.setAttribute("visibility","hidden");
}
function ShowToolTip(evt,hotspotid,strTooltip)
{
	if(strTooltip=="")
	return;

	// change text
	var svgDocument = evt.target.ownerDocument;
	var tiptext = svgDocument.getElementById('ToolTipText');
	if( !tiptext )
	return;
	tiptext.firstChild.nodeValue = " " + strTooltip + "  " ;

	// show tooltip before, else some refresh issue

	var toolTip = svgDocument.getElementById('ToolTip');
	if(!toolTip)
	return;

	toolTip.setAttribute("visibility","visible");
	toolTip.setAttribute("opacity",".95");

	// move tooltip
	// get viewbox

	var root = svgDocument.documentElement;
	var vbox = (root.getAttribute("viewBox")).split(' ');
	var x0 = parseFloat(vbox[0]);
	var y0 = parseFloat(vbox[1]);
	var vboxW = parseFloat(vbox[2]);
	var vboxH = parseFloat(vbox[3]);

	// get default width of svg

	var strW = root.getAttribute("width");
	var svgW = parseFloat(strW);
	if(strW.indexOf('mm') != -1)
	svgW *= 3.779;

	var strH = root.getAttribute("height");
	var svgH = parseFloat(strH);
	if(strH.indexOf('mm') != -1)
	svgH *= 3.779;  	// 96 dpi  -> 96/25.4 = 3.779

	// update the viewbox / width / height if svg is embedded in html with zoom fit all
	var realx0 = x0;
	var realy0 = y0;
	var realvboxW = vboxW;
	var realvboxH = vboxH;
	var realsvgW = svgW;
	var realsvgH = svgH;

	if ((typeof(top) == "undefined") || (typeof(top.svgctl1) != "undefined")) // embedded in html
	{
		// get window size in pxl

		svgW = window.innerWidth;
		svgH = window.innerHeight;

		// calculate real viewbox

		realsvgW = svgW;
		realsvgH = svgH;
		if((svgW / svgH) > (vboxW / vboxH))
		{
			realvboxW = (vboxH * svgW) / svgH;
			realvboxH = vboxH;
			realx0 = x0 - (realvboxW - vboxW)/2 ;
		}
		else
		{
			realvboxH = (vboxW * svgH) / svgW;
			realvboxW = vboxW;
			realy0 = y0 - (realvboxH - vboxH)/2 ;
		}
	}

	// get user zoom/pan

	var newScale = root.currentScale;
	var translation = root.currentTranslate;

	// transform pxl to user unit

	var xPos = (((evt.clientX+10- translation.x)/newScale) * realvboxW)/realsvgW  + realx0 ;
	var yPos = (((evt.clientY+5- translation.y)/newScale) * realvboxH)/ realsvgH  + realy0 ;
	var scaleForWidth = ( (1 / newScale) * realvboxH) / realsvgH;

	// move tooltip

	toolTip.setAttribute("transform", "translate(" + xPos + "," + yPos + ")" );

	// resize tooltip

	var fontsize = 12;
	tiptext.setAttribute("font-size",fontsize*scaleForWidth);
	tiptext.setAttribute("y", fontsize*scaleForWidth);
	var tipBG = svgDocument.getElementById('ToolTipBG');
	var outline = tiptext.getBBox();
	if(tipBG)
	{
		tipBG.setAttribute("stroke-width", 1*scaleForWidth);
		tipBG.setAttribute("width", Number(outline.width) );
		tipBG.setAttribute("height", Number(outline.height) + fontsize*.5*scaleForWidth );
	}
	var ToolTipShadow = svgDocument.getElementById('ToolTipShadow');
	if(ToolTipShadow)
	{
		ToolTipShadow.setAttribute("width", Number(outline.width) );
		ToolTipShadow.setAttribute("height", Number(outline.height) + fontsize*.5*scaleForWidth );
		ToolTipShadow.setAttribute("x", 3*scaleForWidth);
		ToolTipShadow.setAttribute("y", 3*scaleForWidth);
	}
}
function ShowPaper()
{
  var svgDocument = getDocument();
  var paper = svgDocument.getElementById("paperID");
  if(paper)
  {
    paper.setAttribute("transform","scale(1)");
    paper.setAttribute("opacity","1");
    paper.setAttribute("visibility","visible");
  }
  var svg = svgDocument.getRootElement();
  if(svg)
  {
    svg.setAttribute("width","307.000mm");
    svg.setAttribute("height","220.000mm");
    svg.setAttribute("viewBox","-5.000000 -5.000000 307.000000 220.000000");
  }
}
]]></script><defs/><g><path style="fill:#000000;fill-opacity:0.098;fill-rule:evenodd" d="M84.29,46.45L85.04,45.70L86.34,45.41L86.28,47.44L85.99,47.66L85.57,50.21L84.30,47.65zM68.38,48.37L68.37,49.49L67.80,49.48L67.91,48.11L67.29,47.69L67.29,47.13L67.86,47.11zM151.04,49.88L150.72,49.96L150.77,49.37zM71.21,52.48L71.37,53.21L70.78,53.21L70.83,52.66L71.12,52.37zM154.45,52.63L153.44,52.87L151.17,52.94L151.45,51.37L152.45,51.12L154.52,51.11zM182.99,49.28L182.66,53.70L180.81,53.70L181.06,49.12L182.91,49.12zM61.66,54.07L62.40,54.22L62.56,53.10L68.89,52.86L68.88,53.69L68.62,54.43L64.07,54.83L64.66,56.36L64.07,59.09L63.41,65.65L60.90,65.90L60.91,62.90L61.41,58.92L61.91,56.37L61.14,55.84L61.13,55.44L61.44,54.94L61.39,53.85zM156.36,55.73L157.26,58.10L157.02,59.93L155.74,60.15L155.48,61.20L155.20,61.20L155.26,58.67L155.53,56.84L155.17,56.33L155.68,55.55zM88.46,57.32L89.55,57.33L89.55,59.67zM52.21,55.21L51.95,55.68L39.14,56.31L38.74,57.17L37.93,57.35L36.16,57.34L36.51,56.94L36.75,55.92L38.98,55.66L39.19,55.37L51.39,54.88L51.93,54.66L52.20,54.09zM70.16,57.85L70.16,58.16L69.60,57.81L69.55,57.55L69.86,57.55zM65.39,58.84L65.65,60.92L65.31,61.33L64.64,63.89L64.66,66.40L63.80,66.39L64.32,60.83L65.07,58.09zM187.16,60.55L187.12,61.19L186.81,61.20L186.90,60.28zM162.99,62.07L162.98,66.14L159.00,119.92L158.42,121.08L152.94,121.34L153.18,119.57L157.04,119.65L161.15,64.30L162.74,64.16L162.72,61.32zM75.85,71.28L76.84,74.02L76.85,75.61L72.78,76.02L72.12,76.85L72.12,80.02L72.63,80.01L73.36,80.57L73.78,79.26L79.84,78.99L79.84,80.59L76.75,80.98L76.59,82.07L74.86,105.72L74.60,106.46L73.60,104.40L71.35,99.18L71.13,97.91L69.02,97.75L71.78,61.81zM153.78,63.56L154.29,66.38L152.68,66.40L152.76,64.64L152.98,63.57L152.71,63.38L152.77,62.63L153.04,62.55zM76.60,65.32L76.02,65.40L76.11,64.60L76.34,64.56zM156.91,65.82L157.16,64.05L160.51,64.06L160.50,64.89L160.24,65.63L157.42,66.05L157.50,69.15zM65.46,67.98L65.33,67.86L65.38,63.89L65.64,63.05zM59.18,69.77L59.32,71.38L66.91,71.29L66.92,71.85L65.31,72.03L59.32,72.26L58.57,73.01L57.59,74.27L56.35,74.52L50.86,74.78L49.12,74.54L51.46,73.77L49.36,73.34L49.43,72.87L50.37,72.53L57.68,72.12L57.41,68.28zM65.73,68.71L65.46,67.98L65.62,68.07zM65.91,69.37L65.73,68.71L65.88,68.84zM51.45,69.78L50.96,70.13L50.20,70.32L48.94,69.50L48.88,69.27zM57.44,67.41L57.17,67.88L55.35,68.05L44.37,68.51L43.91,69.55L41.39,69.54L41.74,69.14L41.98,68.12L45.89,67.55L57.18,67.14L57.42,66.28zM48.13,72.02L49.13,71.78L50.71,71.77L50.11,72.27L48.41,72.29zM88.69,71.78L97.00,71.50L96.76,72.37L95.95,73.05L95.44,74.53L93.71,74.50L93.74,74.26L89.04,74.30zM158.51,75.01L158.77,77.09L157.16,77.10L157.25,75.60L157.49,74.24L157.28,74.01L157.24,73.35L157.77,73.23zM79.59,74.77L79.58,75.62L78.99,75.61L79.09,74.29L78.32,73.76L78.32,73.35L78.84,73.23zM155.03,75.50L155.77,77.50L155.76,85.23L156.28,88.79L156.03,88.75L155.51,85.72L155.27,80.98L153.68,80.84L153.77,78.59L154.03,76.53L154.01,75.33L154.77,75.23zM92.07,76.74L91.79,78.35L91.27,79.31L91.30,80.97L91.56,81.24L91.44,82.00L93.79,82.24L91.42,82.50L91.42,83.06L94.04,83.24L90.95,83.47L90.78,84.33L89.44,76.76L91.82,76.49zM152.27,83.24L152.80,86.05L151.19,86.06L151.48,83.23L151.14,82.73L151.43,82.44L151.79,82.44zM181.57,88.71L180.30,88.71L182.55,85.46L183.64,85.45zM80.35,93.41L81.06,94.91L80.25,98.17L79.83,103.48L79.58,104.22L77.25,104.24L77.34,100.24L78.07,95.75L78.34,94.89L77.58,94.43L77.57,93.51L78.56,92.24L79.33,92.17zM156.76,93.69L157.27,96.76L155.66,96.76L155.99,93.90L155.66,93.42L155.94,92.93L156.26,92.89zM175.93,93.92L175.61,94.00L175.69,93.68zM154.27,96.92L154.27,104.15L154.52,107.73L154.25,107.16L154.02,105.14L153.78,100.65L152.18,100.50L152.44,97.18L152.48,95.24L152.71,94.92L153.28,94.89zM211.06,95.50L206.22,95.68L200.96,95.67L201.23,95.19L211.06,94.94zM161.74,96.01L161.40,96.01L161.40,95.68L161.74,95.68zM100.40,95.92L105.98,95.92L105.97,97.50L105.73,98.76L103.15,98.91L102.96,99.78L102.69,99.77L102.24,99.16L101.66,99.00L101.24,96.43L100.45,96.16zM213.20,96.19L211.18,96.26L211.45,95.18L213.27,94.91zM146.78,96.74L146.46,96.66L146.83,96.46zM82.09,99.00L81.58,100.00L81.07,101.48L81.09,104.65L80.24,104.74L80.50,100.16L81.35,96.72L81.57,96.67zM164.48,98.01L164.21,98.74L163.40,98.92L161.63,98.92L162.42,97.44L164.24,97.02L164.47,95.41zM176.11,99.15L176.95,101.16L176.19,109.71L175.08,109.71L176.17,94.77L176.42,93.67zM150.64,98.09L150.21,99.42L146.96,99.43L147.20,97.91L150.56,97.93zM206.00,100.65L202.95,100.73L202.95,100.17L206.08,100.17zM65.14,102.51L64.89,101.40L64.89,98.65zM208.31,101.01L208.04,101.49L206.19,101.49L206.26,100.71L206.47,100.41L208.05,100.25L208.29,98.65zM174.69,102.25L174.35,102.90L170.87,103.15L166.87,103.16L167.21,101.98L167.37,100.15L169.87,99.91L174.96,99.92zM89.81,103.88L89.72,104.91L88.03,109.21L88.04,106.47L88.20,103.39L89.54,103.40zM180.42,105.23L178.82,105.23L179.57,94.92L181.18,94.94zM66.48,105.25L66.63,105.99L66.04,105.90L66.38,105.13zM149.72,105.65L146.45,105.72L146.71,104.14L149.78,103.87zM81.82,103.23L81.65,105.81L81.51,105.70L81.57,102.98L82.06,100.94L82.35,100.67zM81.90,106.81L81.65,105.81L81.80,105.91zM74.12,106.83L75.61,108.61L75.76,109.71L83.08,109.62L83.08,110.46L77.51,110.62L75.35,110.95L73.63,112.97L66.38,113.12L65.54,112.87L67.42,112.41L67.42,112.14L65.53,111.67L65.83,111.17L65.97,111.04L72.78,110.62L73.87,110.46L73.86,106.61zM174.91,106.95L174.59,106.87L174.96,106.66zM82.09,107.46L81.90,106.81L82.06,106.93zM106.81,105.04L106.46,107.71L105.91,107.90L102.64,107.97L102.64,105.13L106.73,104.88zM67.43,108.13L67.67,108.35L67.06,108.66L66.38,108.66L65.30,107.87zM183.49,109.23L183.63,109.99L183.33,109.99L183.38,109.11zM47.50,108.24L47.25,108.49L34.44,109.12L34.02,110.20L31.68,110.20L32.20,108.63L36.18,108.13L47.23,107.73L47.46,106.61zM217.28,110.19L211.45,110.37L207.22,110.40L207.73,109.89L211.69,109.62L217.28,109.63zM64.31,110.36L66.65,110.36L65.97,111.04L64.60,110.62zM219.42,110.88L217.41,110.88L217.68,109.88L218.14,109.61L219.50,109.61zM188.72,62.48L185.63,106.72L185.07,112.37L183.79,112.44L187.53,62.31L188.63,62.31zM171.01,111.24L170.63,113.87L168.14,113.89L168.42,113.69L168.61,112.35L170.71,112.21L170.94,111.09zM156.69,114.37L154.68,114.60L153.16,114.60L153.54,113.95L153.68,112.85L156.76,112.85zM67.65,116.83L67.65,117.67L67.41,117.62L66.34,115.60L66.89,115.11zM103.13,118.42L105.73,118.58L105.72,120.66L105.47,121.40L102.41,121.68L102.65,111.35L103.49,111.35zM130.28,118.68L130.54,112.36L133.51,72.77L136.36,72.78L132.88,118.69L132.58,119.19L132.09,118.86zM69.39,120.07L69.63,122.17L68.78,122.08L69.10,120.31L68.62,120.06L68.62,119.65L69.11,119.56zM73.11,121.43L72.78,121.43L72.78,120.80L73.11,120.80zM75.88,122.26L77.12,124.81L77.12,125.39L76.59,126.38L73.76,126.79L73.29,129.30L72.27,130.78L70.12,131.06L69.36,130.52L69.36,130.14L70.14,129.52L70.87,130.11L71.36,127.88L71.66,124.33L70.78,124.41L71.11,123.10L71.37,122.82L72.63,125.57L73.08,125.65L75.48,122.05zM137.93,69.45L134.03,122.58L133.02,122.66L136.84,70.62L137.00,69.28L137.84,69.28zM37.99,122.88L37.67,122.80L38.04,122.60zM103.91,124.82L102.39,124.90L102.39,122.06L103.99,122.06zM53.87,124.07L42.41,124.56L40.91,124.81L40.67,125.56L38.15,125.55L38.67,124.31L40.72,124.12L40.93,123.83L53.96,123.32zM78.33,127.76L79.11,129.86L78.11,129.02L77.73,128.03L78.12,127.53zM102.24,127.13L101.89,128.07L101.41,128.15L101.40,125.29L102.24,125.29zM182.74,128.40L182.89,129.16L182.59,129.15L182.63,128.28zM216.53,129.11L213.42,129.38L213.49,128.89L214.43,128.54L216.53,128.55zM218.67,129.80L216.66,129.80L216.92,128.79L218.76,128.79zM86.05,134.62L85.89,133.42L86.03,133.51zM82.82,135.34L83.08,134.87L85.46,102.39L88.05,102.14L86.47,123.32L85.89,133.42L85.50,135.04L85.01,135.80L82.33,135.75L81.55,135.24L81.50,135.01L82.10,134.76zM185.68,135.25L185.63,135.63L185.32,135.61L185.27,135.02zM219.26,135.57L218.94,135.80L215.93,135.79L216.44,135.28L219.26,135.01zM221.48,136.34L221.19,136.54L219.40,136.52L219.65,135.25L221.49,135.25zM81.41,147.38L81.22,146.72L81.32,146.70zM81.59,148.04L81.41,147.38L81.57,147.51zM183.90,147.81L183.56,148.46L180.79,148.45L181.65,147.29L182.29,145.69L184.16,145.72zM187.22,135.91L186.14,152.28L184.79,152.28L186.05,136.01L186.55,135.72L187.13,135.74zM101.83,139.15L101.49,149.54L101.49,157.42L101.74,160.41L102.47,165.15L103.96,170.88L108.49,182.83L108.47,183.38L107.59,183.79L107.98,185.06L105.47,185.05L102.97,184.57L98.99,182.57L97.28,181.30L95.78,180.06L94.54,178.56L91.78,174.81L91.77,174.34L93.01,175.36L94.70,175.36L96.01,174.19L96.52,172.95L98.17,157.92L100.98,139.06L101.73,138.98z"/><g id="Actor_.0"><g style="stroke:#000000;stroke-width:0.176;stroke-opacity:0.06"><path d="M86.58,50.60L86.41,50.47L86.25,50.60L86.12,50.98L86.05,51.44"/><path d="M86.23,50.30L86.06,50.44L85.92,50.85L85.89,51.06"/><path d="M86.17,51.73L86.24,51.61L86.33,51.61L86.42,51.75L86.50,52.01L86.56,52.37L86.59,52.72"/><path d="M86.40,51.44L86.50,51.44L86.60,51.59L86.69,51.89L86.76,52.29L86.80,52.76L86.81,53.23"/><path d="M86.41,50.44L86.58,50.85L86.73,51.47L86.83,52.25L86.88,53.10L86.87,53.38"/></g><g style="stroke:#000000;stroke-width:0.529;stroke-opacity:0.06"><path d="M86.24,51.89L86.31,51.59L86.40,51.44L86.24,51.61L86.13,51.62"/><path d="M85.58,50.34L86.23,50.30L86.41,50.44L86.58,50.60L86.74,50.98L86.87,51.56L86.97,52.28L87.01,53.07L87.00,53.68"/></g></g><g id="Actor_.1"><g style="stroke:#000000;stroke-width:0.176"><path d="M202.81,100.76L202.88,100.64L202.93,100.42L202.96,100.13L202.96,99.78L202.94,99.43L202.90,99.11L202.89,99.06L202.84,98.85L202.77,98.68L202.69,98.62"/><path d="M202.43,98.89L202.49,98.85L202.55,98.89L202.60,99.03L202.65,99.24L202.69,99.49L202.70,99.77L202.70,100.05L202.68,100.28L202.64,100.46L202.58,100.55L202.52,100.55"/><path d="M205.89,100.66L205.87,100.65L205.84,100.65L205.60,100.65"/><path d="M205.51,98.52L205.72,98.51L205.75,98.51L205.77,98.50L205.77,98.49L205.79,98.47"/><path d="M205.81,97.63L205.95,97.74L206.07,98.04L206.18,98.51L206.26,99.09L206.29,99.73L206.29,100.34L206.23,100.88L206.14,101.27L206.03,101.48"/></g><g style="stroke:#000000;stroke-width:0.529"><path d="M202.95,100.75L202.81,100.76L202.74,100.76L202.52,100.55L202.47,100.46L202.41,100.29L202.37,100.05L202.35,99.78L202.34,99.49L202.35,99.24L202.39,99.03L202.43,98.89L202.62,98.68L202.69,98.62L205.51,98.52L205.51,98.51L205.58,98.04L205.68,97.74L205.81,97.63L207.70,97.56L207.77,97.56L207.83,97.59L207.96,97.69L208.01,97.74L208.03,97.79L208.15,98.07L208.25,98.50L208.32,99.04L208.36,99.63L208.35,100.20L208.30,100.69L208.22,101.05L208.20,101.11L208.08,101.30L208.04,101.35L207.98,101.39L207.92,101.40L206.03,101.48L205.89,101.48L205.76,101.27L205.64,100.88L205.60,100.65L202.95,100.75"/></g></g><g id="Actor_.2"><g style="stroke:#000000;stroke-width:0.176"><path d="M213.36,129.18L213.42,129.06L213.47,128.84L213.50,128.55L213.51,128.20L213.49,127.85L213.44,127.53L213.38,127.27L213.31,127.10L213.24,127.04L213.24,127.04"/><path d="M212.98,127.32L213.03,127.27L213.09,127.31L213.15,127.45L213.20,127.66L213.21,127.78L213.23,127.91L213.25,128.20L213.24,128.47L213.22,128.71L213.18,128.88L213.13,128.97L213.07,128.97"/><path d="M216.57,129.90L216.69,129.69L216.78,129.30L216.83,128.76L216.84,128.15L216.80,127.51L216.73,126.93L216.69,126.79L216.62,126.46L216.49,126.16L216.35,126.05"/><path d="M216.15,129.08L216.39,129.07L216.41,129.07L216.44,129.08"/><path d="M216.05,126.94L216.27,126.93L216.29,126.93L216.32,126.91L216.33,126.89"/></g><g style="stroke:#000000;stroke-width:0.529"><path d="M213.24,127.04L213.17,127.10L212.98,127.32L212.93,127.45L212.90,127.66L212.88,127.92L212.89,128.20L212.92,128.47L212.96,128.71L213.01,128.88L213.07,128.97L213.28,129.18L213.36,129.18L216.15,129.08L216.18,129.30L216.30,129.69L216.44,129.90L216.57,129.90L218.46,129.82L218.53,129.81L218.58,129.77L218.63,129.73L218.74,129.53L218.76,129.47L218.84,129.11L218.89,128.62L218.90,128.05L218.87,127.46L218.80,126.92L218.70,126.49L218.58,126.21L218.55,126.16L218.50,126.11L218.37,126.01L218.31,125.98L218.25,125.98L216.35,126.05L216.23,126.16L216.12,126.46L216.05,126.93L216.05,126.94L213.24,127.04"/></g></g><g id="Actor_.3"><g style="stroke:#000000;stroke-width:0.176"><path d="M215.85,135.51L215.91,135.51L215.96,135.42L216.00,135.25L216.02,135.01L216.03,134.74L216.01,134.46L215.98,134.20L215.93,133.99L215.87,133.86L215.82,133.82L215.81,133.81L215.75,133.86"/><path d="M216.14,135.72L216.20,135.60L216.25,135.38L216.28,135.09L216.28,134.75L216.26,134.39L216.22,134.07L216.16,133.81L216.09,133.64L216.02,133.58L216.02,133.58"/><path d="M219.35,136.44L219.47,136.23L219.56,135.84L219.61,135.31L219.62,134.69L219.58,134.05L219.51,133.47L219.40,133.00L219.27,132.70L219.13,132.59"/><path d="M219.22,135.62L219.19,135.61L219.17,135.61L218.92,135.62"/><path d="M219.11,133.43L219.09,133.45L219.07,133.47L219.05,133.47L218.83,133.48"/></g><g style="stroke:#000000;stroke-width:0.529"><path d="M216.02,133.58L215.95,133.64L215.75,133.86L215.71,133.99L215.68,134.20L215.66,134.46L215.67,134.74L215.69,135.01L215.74,135.25L215.79,135.42L215.85,135.51L216.06,135.72L216.14,135.72L218.92,135.62L218.96,135.84L219.08,136.23L219.22,136.44L219.35,136.44L220.77,136.38"/><path d="M221.61,135.72L221.62,135.65L221.67,135.16L221.68,134.59L221.65,134.00L221.58,133.47L221.48,133.03L221.36,132.75L221.33,132.70L221.28,132.66L221.15,132.55L221.09,132.52L221.03,132.52L219.13,132.59L219.01,132.70L218.90,133.00L218.83,133.47L218.83,133.48L216.02,133.58"/></g></g><g id="Actor_.4"><g style="stroke:#000000;stroke-width:0.176"><path d="M31.11,108.43L31.36,109.03L31.54,108.42L31.11,108.43L31.05,107.18L31.50,107.16L31.50,107.12L31.25,106.53L31.05,107.18"/><path d="M31.54,108.42L31.56,108.37L31.50,107.16"/><path d="M34.28,108.95L34.32,108.62L34.33,107.87L34.28,107.09L34.19,106.39"/><path d="M47.09,105.92L47.17,106.12L47.25,106.43L47.30,106.82L47.32,107.24L47.32,107.65L47.28,108.01L47.22,108.27L47.14,108.41"/></g><g style="stroke:#000000;stroke-width:0.529"><path d="M31.68,110.10L31.57,110.10L31.49,110.09L31.42,110.06L31.36,110.00L31.20,109.76L31.17,109.70L31.04,109.26L30.99,108.96L30.93,108.66L30.87,107.96L30.85,107.24L30.87,106.98L30.89,106.58L30.97,106.05L31.09,105.71L31.11,105.64L31.16,105.58L31.32,105.46L31.39,105.42L31.46,105.40L33.73,105.31L33.90,105.44L34.06,105.81L34.19,106.38L47.00,105.85L47.09,105.92L47.32,106.13L47.39,106.30L47.45,106.55L47.49,106.87L47.51,107.21L47.50,107.55L47.47,107.84L47.42,108.05L47.36,108.16L47.14,108.41L34.28,108.95L34.25,109.28L34.14,109.75L34.00,110.01L31.73,110.10L31.68,110.10"/></g></g><g id="Actor_.5"><g style="stroke:#000000;stroke-width:0.176"><path d="M166.03,93.79L166.36,93.78L166.69,94.29L166.93,95.09L166.98,95.24L167.21,96.55L167.35,98.06L167.38,99.61L167.31,101.03L167.15,102.03L167.13,102.18L166.87,102.92L166.56,103.18"/><path d="M172.22,102.95L174.13,102.87L174.45,102.61L174.70,101.87L174.88,100.73L174.95,99.30L174.92,97.75L174.78,96.24L174.55,94.94L174.26,93.98L173.93,93.48L173.60,93.48L172.35,93.53"/><path d="M173.17,89.01L173.10,88.91L173.04,88.72L173.00,88.46L172.97,88.16L172.96,87.85L172.98,87.56L173.01,87.33L173.06,87.18L173.13,87.13L173.19,87.18L173.25,87.33L173.31,87.56L173.34,87.84L173.36,88.15L173.36,88.46L173.33,88.72L173.29,88.90L173.23,89.01L173.17,89.01"/><path d="M175.20,107.47L176.24,93.32L172.94,85.56"/><path d="M175.02,107.41L175.02,107.15L175.00,106.84L174.97,106.55L174.91,106.32L174.85,106.18L174.78,106.13L174.72,106.18L174.67,106.33L174.64,106.55L174.62,106.84L174.63,107.15L174.64,107.29"/><path d="M175.77,95.14L175.84,95.14L175.89,95.04L175.93,94.88L175.94,94.85L175.96,94.59L175.97,94.29L175.95,93.98L175.91,93.68L175.86,93.46L175.80,93.31L175.73,93.26L175.67,93.31L175.62,93.46L175.58,93.69L175.57,93.98L175.57,94.10L175.57,94.29L175.60,94.59L175.65,94.85L175.71,95.04L175.77,95.14"/><path d="M176.24,93.32L176.55,93.31"/></g><g style="stroke:#000000;stroke-width:0.529"><path d="M174.33,107.91L172.22,102.95L166.56,103.18L166.23,102.93L166.07,102.61L165.92,102.19L165.66,101.04L165.47,99.61L165.38,98.06L165.40,97.08L165.40,96.55L165.53,95.25L165.75,94.29L166.03,93.79L172.35,93.53L172.94,85.56L174.20,85.51L176.69,91.35"/><path d="M176.93,101.05L176.30,109.54L175.07,109.59"/></g></g><g id="Actor_.6"><g style="stroke:#000000;stroke-width:0.176"><path d="M167.73,108.96L167.89,108.96L168.06,109.22L168.21,109.70L168.25,109.95L168.33,110.37L168.40,111.14L168.41,111.93L168.38,112.65L168.29,113.24L168.16,113.61L168.00,113.74L167.83,113.61"/><path d="M168.17,113.91L168.34,113.77L168.48,113.36L168.55,112.92L168.58,112.74L168.62,111.96L168.60,111.11L168.53,110.29L168.40,109.58L168.24,109.06L168.06,108.78L167.89,108.78"/><path d="M168.08,112.60L167.99,112.46L167.91,112.20L167.85,111.85L167.81,111.44L167.80,111.01L167.82,110.62L167.87,110.31L167.94,110.11L168.00,110.06L168.00,110.05L167.95,109.95L167.85,109.87L167.75,109.95L167.67,110.18L167.62,110.54L167.60,110.98L167.61,111.46L167.65,111.92L167.72,112.33L167.81,112.62L167.91,112.78L168.01,112.78L168.10,112.62L168.10,112.60L168.08,112.60"/><path d="M168.10,112.60L168.17,112.33L168.21,111.92L168.21,111.46L168.19,110.98L168.13,110.54L168.05,110.18L168.00,110.06"/><path d="M170.34,108.80L170.51,109.20L170.66,109.83L170.76,110.60L170.80,111.45L170.79,112.27L170.72,112.99L170.60,113.51L170.45,113.78"/></g><g style="stroke:#000000;stroke-width:0.529"><path d="M168.42,113.90L168.17,113.91L167.99,113.77L167.83,113.61L167.67,113.24L167.54,112.65L167.44,111.93L167.40,111.14L167.41,110.37L167.47,109.71L167.58,109.22L167.73,108.96L167.89,108.78L170.16,108.66L170.34,108.80L170.50,108.95L170.66,109.33L170.80,109.91L170.89,110.64L170.94,111.43L170.93,112.20L170.86,112.86L170.75,113.35L170.60,113.61L170.45,113.78L169.84,113.82"/></g></g><g id="Actor_.7"><g style="stroke:#000000;stroke-width:0.176"><path d="M66.11,83.93L65.77,85.34L65.27,86.68L64.70,87.54L64.09,87.88L63.46,87.71L62.83,87.01L62.21,85.82L61.62,84.17L61.09,82.11L60.62,79.71L60.24,77.03L59.95,74.15L59.82,72.10"/><path d="M61.65,54.29L61.38,54.70L60.87,56.04L60.44,57.83L60.10,60.01L59.85,62.51L59.71,65.26L59.68,68.18L59.71,69.54"/><path d="M65.16,86.84L64.90,86.99L64.30,86.82L63.69,86.16L63.11,85.03L62.55,83.46L62.04,81.51L61.60,79.22L61.23,76.67L60.96,73.95L60.84,72.06"/><path d="M62.93,54.61L62.85,54.65L62.31,55.47L61.84,56.74L61.42,58.44L61.10,60.51L60.86,62.89L60.73,65.50L60.70,68.27L60.73,69.50"/><path d="M61.23,44.91L61.45,44.93L61.68,45.29L63.45,49.47"/><path d="M64.67,49.42L62.57,44.50L62.29,44.05L62.01,44.02"/><path d="M63.92,54.57L64.44,55.56L65.04,57.26"/><path d="M66.34,47.31L65.32,49.39"/><path d="M66.72,106.19L66.67,105.72L66.60,105.30L66.50,104.98L66.40,104.82L66.29,104.82L66.20,104.99L66.12,105.30L66.08,105.73L66.08,106.21"/><path d="M69.20,106.09L66.92,100.73L66.74,100.15L66.60,99.38L66.51,98.48L66.48,97.53L66.51,96.65L69.29,58.82L69.38,58.07L69.52,57.53L69.70,57.26L69.90,57.29L70.09,57.60L71.71,61.39L69.04,97.58L69.04,98.11L69.07,98.36L69.11,98.59L69.16,98.75L72.23,105.97"/><path d="M68.00,54.40L68.07,54.78L68.33,55.60L68.56,55.96L68.41,56.50L68.11,56.97L67.77,56.93L67.43,56.39L67.13,55.41L66.95,54.44"/><path d="M67.80,49.30L67.87,48.70L68.07,47.94L68.22,47.71L68.10,47.31L67.76,46.78L67.42,46.74L67.12,47.20L66.88,48.12L66.73,49.34"/><path d="M68.25,123.82L68.23,123.52L68.20,122.23L68.26,121.03L68.41,120.07L68.62,119.45L68.88,119.24L69.16,119.45L69.31,119.81L69.18,119.92L68.99,120.46L68.86,121.29L68.81,122.33L68.84,123.46L68.94,124.56L69.10,125.50L69.32,126.20L69.55,126.57L69.59,126.58L69.56,126.67L69.32,127.09L69.05,127.10L68.78,126.68L68.53,125.88L68.34,124.79L68.25,123.82"/><path d="M68.22,47.71L68.41,48.29L68.65,49.62L68.81,51.17L68.86,52.78L68.81,54.30L68.65,55.59L68.56,55.96"/><path d="M68.19,43.67L68.40,43.73L68.61,44.07L79.26,69.15L79.45,69.74L79.61,70.54L79.72,71.48L81.17,89.27L81.33,90.68L81.57,91.88L81.85,92.77L84.00,97.82L84.20,98.47L84.36,99.36L84.47,100.39L84.50,101.46L84.47,102.48L82.21,133.12L82.11,133.98L81.95,134.59L81.75,134.90L81.52,134.87"/><path d="M68.96,129.89L69.34,130.07L69.70,129.79L70.01,129.05L70.26,127.92L70.42,126.46L70.58,124.49L70.62,124.27L70.72,124.01L70.84,123.92L71.74,123.35L72.54,125.23L72.73,125.55L72.92,125.64L73.09,125.50L75.35,122.08L75.62,121.87L75.90,122.00L76.18,122.48L76.33,122.83L76.27,122.87L74.02,126.29L73.80,126.46"/><path d="M68.98,42.78L69.25,42.85L69.51,43.28L80.16,68.36L80.40,69.10L80.59,70.10L80.73,71.27L82.18,89.06L82.32,90.23L82.51,91.24L82.75,91.98L84.89,97.03L85.15,97.84L85.35,98.95L85.48,100.24L85.53,101.59L85.48,102.85L83.65,127.78L83.23,133.50L83.10,134.57L82.90,135.33L82.64,135.72"/><path d="M70.22,130.90L70.63,130.58L70.98,129.75L71.26,128.48L71.44,126.84L71.62,124.35L71.62,124.23L71.60,124.13L71.53,123.95L71.45,123.81"/><path d="M69.59,126.58L69.75,125.87L69.85,124.78L69.87,123.52L69.80,122.22L69.64,121.03L69.42,120.07L69.31,119.81"/><path d="M70.72,124.01L71.26,122.59L71.31,122.50L71.36,122.49L71.41,122.56L71.74,123.35"/><path d="M71.17,55.05L71.06,54.97L70.96,54.73L70.87,54.35L70.81,53.89L70.78,53.38L70.79,52.88L70.83,52.46L70.90,52.14L71.00,51.98L71.10,51.98L71.21,52.14L71.30,52.44L71.38,52.88L71.43,53.38L71.44,53.88L71.41,54.35L71.36,54.73L71.27,54.97L71.17,55.05"/><path d="M74.35,111.87L74.15,114.63L74.06,115.38L73.92,115.92L73.74,116.19L73.54,116.16L73.35,115.85L72.06,112.82"/><path d="M73.49,65.60L71.71,61.39"/><path d="M73.77,126.45L73.56,126.35L73.18,125.98L73.12,126.77L72.94,128.41L72.66,129.68L72.31,130.51"/><path d="M73.18,125.98L72.73,125.55"/><path d="M72.85,123.10L72.96,123.35L73.06,123.43L73.16,123.34L73.25,123.10L73.31,122.73L73.33,122.24L73.32,121.75L73.27,121.26L73.20,120.83L73.10,120.52L73.00,120.36L72.89,120.35L72.80,120.52L72.72,120.83L72.68,121.26L72.68,121.75L72.70,122.26L72.77,122.73L72.85,123.10"/><path d="M74.69,107.32L74.72,106.81"/><path d="M82.44,122.35L82.10,123.76L81.59,125.11L81.03,125.96L80.42,126.31L79.79,126.13L79.15,125.44L78.53,124.25L77.95,122.60L77.41,120.54L76.95,118.13L76.56,115.45L76.27,112.58L76.14,110.53"/><path d="M81.36,95.68L80.76,93.98L80.12,92.77L79.51,92.10L78.88,91.92L78.27,92.27L77.70,93.13L77.20,94.47L76.77,96.26L76.42,98.44L76.18,100.94L76.03,103.69L76.00,106.61L76.04,107.97"/><path d="M76.05,66.37L76.08,66.62L76.17,66.99L76.27,67.23L76.38,67.32L76.48,67.23L76.57,66.99L76.62,66.61L76.65,66.15L76.64,65.64L76.59,65.15L76.52,64.73L76.42,64.41L76.31,64.24L76.21,64.24L76.11,64.41L76.04,64.72L76.00,65.15L75.99,65.64L76.02,66.15L76.05,66.37"/><path d="M76.33,122.83L77.28,125.07"/><path d="M77.16,110.49L77.28,112.37L77.56,115.10L77.92,117.65L78.37,119.93L78.87,121.89L79.43,123.46L80.02,124.59L80.62,125.25L81.22,125.41L81.49,125.26"/><path d="M80.18,92.87L79.77,92.75L79.18,93.08L78.64,93.89L78.16,95.17L77.75,96.87L77.42,98.94L77.19,101.31L77.06,103.93L77.03,106.70L77.06,107.93"/><path d="M79.12,80.56L79.19,80.95L79.45,81.76L79.67,82.12L79.53,82.67L79.22,83.13L78.89,83.09L78.55,82.55L78.24,81.57L78.07,80.61"/><path d="M78.91,75.47L78.98,74.87L79.18,74.10L79.34,73.87L79.22,73.47L78.88,72.94L78.54,72.90L78.24,73.36L77.99,74.28L77.85,75.50"/><path d="M79.67,82.12L79.77,81.75L79.92,80.47L79.98,78.94L79.92,77.33L79.77,75.78L79.52,74.45L79.34,73.87"/><path d="M87.47,110.04L86.54,122.67"/></g><g style="stroke:#000000;stroke-width:0.529"><path d="M65.65,106.24L64.73,97.08L64.56,95.85L64.35,94.81L64.09,94.02L58.98,81.99L58.77,81.33L58.61,80.45L58.51,79.42L58.47,78.34L58.50,77.32L58.86,72.51"/><path d="M87.47,110.04L88.01,102.75L88.05,101.48L88.00,100.14L87.87,98.85L87.67,97.74L87.42,96.92L85.27,91.88L85.04,91.13L84.84,90.14L84.71,88.96L83.25,71.17L83.12,70.00L82.92,69.00L82.68,68.25L81.04,64.39L72.03,43.18L71.77,42.75L71.51,42.68L68.98,42.78L68.00,43.90L66.34,47.31L65.10,44.39L64.82,43.95L64.53,43.92L62.01,44.02L61.23,44.91L61.02,45.21L60.86,45.82L60.76,46.68L59.08,69.56"/><path d="M66.11,83.93L66.21,83.55L66.55,81.37L66.80,78.87L66.94,76.11L66.97,73.20L66.89,70.20L66.70,67.23L66.41,64.35L66.02,61.67L65.56,59.27L65.04,57.26"/><path d="M86.54,122.67L85.75,133.40L85.62,134.46L85.42,135.23L85.17,135.61L82.64,135.72L82.36,135.68L81.52,134.87L81.29,134.51L77.28,125.07L76.54,126.18L76.32,126.36L73.80,126.46L73.77,126.45L73.63,127.78L73.38,128.92L73.07,129.65L72.31,130.51L71.91,130.83L70.22,130.90L69.80,130.69L68.96,129.89L68.59,129.25L68.24,128.19L67.95,126.80L67.74,125.16L67.61,123.39L67.58,121.60L67.64,119.92L67.77,118.19L67.78,117.58L67.54,113.83L67.48,113.37L67.44,113.23L67.36,113.04"/><path d="M76.65,80.66L74.72,106.81L71.26,98.66L71.21,98.50L71.17,98.28L71.15,98.02L71.15,97.50L72.43,80.12"/><path d="M76.95,75.53L76.93,74.97L76.84,74.07L76.70,73.30L76.52,72.72L73.49,65.60L72.73,75.96"/><path d="M82.44,122.35L82.53,121.97L82.88,119.79L83.12,117.29L83.26,114.54L83.29,111.62L83.21,108.63L83.03,105.65L82.74,102.78L82.35,100.10L81.88,97.69L81.36,95.68"/></g></g><g id="Actor_.8"><g style="stroke:#000000;stroke-width:0.176"><path d="M49.15,72.67L49.15,72.71L49.18,72.85L48.23,73.33L48.21,73.26"/><path d="M48.23,73.33L48.20,73.80"/><path d="M47.89,71.52L48.00,71.62L48.00,71.71L47.91,71.94"/><path d="M48.00,71.62L49.92,71.23L50.53,71.42L50.91,71.53L48.00,71.71"/><path d="M47.91,69.46L48.00,69.85L49.96,70.34L49.53,70.50"/><path d="M48.00,69.85L48.00,69.93"/><path d="M48.20,68.20L48.22,68.62L48.21,68.66"/><path d="M48.22,68.62L48.93,69.06L48.95,68.76L49.00,68.95L49.02,69.06L50.34,69.36L51.67,69.69L51.35,69.81L49.96,70.34"/><path d="M48.62,74.69L48.59,74.16L49.35,73.52L48.94,73.90L49.03,74.28L48.96,74.47L49.46,74.51L51.32,74.59L49.90,74.67"/><path d="M48.96,74.47L48.92,73.94L48.94,73.90"/><path d="M49.03,74.28L50.63,73.93L51.68,73.67L50.55,73.42L49.68,73.21L49.35,73.52"/><path d="M48.57,74.15L48.59,74.16"/><path d="M49.68,73.21L49.62,73.19L48.83,73.91"/><path d="M49.18,72.85L49.24,73.10L49.26,72.73L49.15,72.63"/><path d="M49.26,72.73L51.14,72.05L51.81,71.80L50.91,71.53"/><path d="M49.62,73.19L49.44,73.15L49.24,73.10"/><path d="M49.22,71.00L49.26,71.03L49.23,70.62"/><path d="M49.26,71.03L49.92,71.23"/><path d="M49.02,69.06L48.93,69.30L50.30,70.21"/><path d="M48.93,69.30L48.92,69.23L48.93,69.06"/><path d="M50.73,68.10L51.31,68.15L50.12,68.43L49.00,68.75L48.56,68.40L48.55,68.19"/><path d="M48.58,68.41L48.59,68.19"/><path d="M49.00,68.75L48.95,68.76"/><path d="M48.91,69.16L48.92,69.16"/><path d="M50.92,71.54L49.53,72.39"/><path d="M51.32,74.59L55.90,74.39"/><path d="M57.24,74.33L57.44,73.96L57.60,73.27L57.69,72.32L57.70,71.22L57.64,70.09L57.51,69.06L57.32,68.22L57.21,67.91L57.13,67.75"/><path d="M59.19,72.13L59.27,71.99L59.33,71.73L59.36,71.37L59.37,70.96L59.34,70.54L59.29,70.15L59.22,69.84L59.18,69.72L59.14,69.63L59.06,69.56"/></g><g style="stroke:#000000;stroke-width:0.529"><path d="M66.93,71.83L59.19,72.13L57.24,74.33L55.90,74.39L49.90,74.67L48.62,74.69L48.53,74.62L48.57,74.15L48.83,73.91L48.20,73.80L48.13,73.49L48.21,73.26L49.15,72.67L49.15,72.63L49.53,72.39L48.46,72.10L47.91,71.94L47.89,71.52L49.22,71.00L49.15,70.94L49.14,70.85L49.23,70.62L49.53,70.50L48.00,69.93L47.88,69.83L47.91,69.46L48.91,69.16L48.21,68.66L48.12,68.27L48.14,68.20"/><path d="M66.83,69.26L59.06,69.56L57.15,67.73"/></g></g><g id="Actor_.9"><g style="stroke:#000000;stroke-width:0.176"><path d="M72.06,76.68L72.17,76.59L72.29,76.68L72.41,76.97L72.51,77.41L72.57,77.95L72.60,78.54L72.58,79.09L72.52,79.55L72.43,79.86L72.32,79.98L72.19,79.90"/><path d="M73.20,80.80L73.37,80.62L73.51,80.16L73.59,79.47L73.62,78.63L73.58,77.75L73.48,76.93L73.34,76.26L73.16,75.84L72.97,75.70"/><path d="M89.08,74.39L89.71,74.36L89.66,74.25L89.47,74.13"/><path d="M89.26,74.14L89.43,74.25L89.06,74.26"/><path d="M89.30,75.70L89.54,75.60L90.37,75.84L90.31,75.69L89.62,75.51L89.41,75.46L89.41,75.45L90.20,75.42L90.14,75.29L89.24,75.33"/><path d="M89.27,75.50L89.34,75.52L89.28,75.55"/><path d="M89.12,74.64L89.50,74.66L89.71,74.71L89.83,74.75L89.91,74.80L89.97,74.88L89.97,74.91L89.97,74.97L89.93,75.02L89.84,75.07L89.64,75.13L89.21,75.17"/><path d="M89.15,74.77L89.45,74.78L89.62,74.80L89.69,74.83L89.72,74.84L89.74,74.85L89.76,74.88L89.76,74.92L89.74,74.95L89.69,74.97L89.57,75.00L89.48,75.02L89.19,75.04"/><path d="M90.87,84.40L90.89,84.17L91.28,84.16L91.28,84.22"/><path d="M90.94,83.42L90.89,84.17"/><path d="M91.73,78.41L91.31,78.43L90.95,83.27"/><path d="M90.96,83.12L91.38,83.10L91.42,82.61"/><path d="M90.60,74.08L90.91,74.83L90.94,74.70L91.02,74.58L91.13,74.48L91.26,74.42L91.41,74.39"/><path d="M91.87,78.63L91.72,78.63L91.58,78.60L91.45,78.56L91.36,78.50L91.31,78.43L91.46,76.38L91.46,76.31L91.46,76.23L91.45,76.15L91.44,76.08L91.42,76.03L90.91,74.83L91.33,74.81"/><path d="M91.28,84.16L91.21,83.99L94.58,83.86"/><path d="M91.39,83.03L94.18,82.92"/><path d="M91.49,81.65L91.44,82.30"/><path d="M91.46,82.07L93.78,81.98"/><path d="M91.55,80.90L91.41,80.87L91.29,80.83L91.19,80.77L91.14,80.70"/><path d="M91.74,75.77L91.84,76.02L91.86,76.07L91.87,76.13L91.88,76.21L91.88,76.29L91.88,76.37L91.83,77.05"/></g><g style="stroke:#000000;stroke-width:0.529"><path d="M79.92,80.53L73.20,80.80L73.01,80.68L72.19,79.90L72.07,79.63L71.97,79.19L71.91,78.70L72.06,76.68L72.97,75.70L77.93,75.49L79.70,75.45"/><path d="M91.26,74.06L91.41,74.39L91.38,74.77L91.35,74.78L91.34,74.80L91.33,74.81L91.74,75.77L91.86,75.77L91.90,75.80L91.92,75.84L91.94,75.90L91.98,76.06L92.01,76.25L92.02,76.46L92.01,76.67L92.00,76.85L91.97,76.98L91.93,77.05L91.83,77.05L91.73,78.41L91.73,78.42L91.75,78.43L91.78,78.43L91.87,78.63L91.70,80.90L91.55,80.90L91.49,81.65L93.61,81.57L93.78,81.98L93.76,82.20L91.44,82.30L91.42,82.61L94.01,82.51L94.18,82.92L94.16,83.14L90.95,83.27L90.94,83.42L90.97,83.42L91.04,83.59L94.41,83.45L94.58,83.86L94.56,84.08L91.28,84.22L91.27,84.38L90.87,84.40L90.86,84.48"/></g></g><g id="Actor_.10"><g style="stroke:#000000;stroke-width:0.176"><path d="M66.06,69.29L66.06,69.29"/><path d="M66.23,63.08L65.99,63.65L65.71,64.67L65.56,65.71L65.56,66.78L65.69,67.86L65.96,68.93L66.09,69.29"/></g><g style="stroke:#000000;stroke-width:0.529"><path d="M66.06,69.29L65.46,67.32L65.35,65.22L65.76,63.11L66.11,62.29"/></g></g><g id="Actor_.11"><g style="stroke:#000000;stroke-width:0.176"><path d="M130.09,118.66L133.49,72.50L126.13,55.17"/><path d="M128.67,55.07L128.99,55.05L136.35,72.39L133.49,72.50"/><path d="M129.12,50.19L129.17,50.20L129.23,50.29L136.78,68.07L136.83,68.24L136.86,68.35L136.90,68.71L136.91,68.98L136.90,69.24L133.00,122.20L132.98,122.42L132.94,122.57L132.88,122.65"/><path d="M131.10,118.62L132.58,118.56L132.66,118.96L132.69,119.35L132.70,119.77L132.68,120.14L132.64,120.44L132.57,120.64L132.49,120.71L132.40,120.64L132.32,120.44L132.25,120.14L132.20,119.76L132.18,119.36L132.18,118.96L132.22,118.57"/><path d="M132.58,118.56L132.95,118.54L136.35,72.39"/></g><g style="stroke:#000000;stroke-width:0.529"><path d="M122.75,101.04L122.73,101.33L130.09,118.66L131.10,118.62L132.77,122.55L132.83,122.64L132.88,122.65L133.98,122.60L134.03,122.52L134.07,122.37L134.09,122.16L137.99,69.19L138.00,68.94L137.99,68.67L137.97,68.41L137.93,68.19L137.88,68.03L130.32,50.25L130.27,50.16L130.21,50.15L129.12,50.19L129.06,50.27L129.02,50.42L129.00,50.64L128.67,55.07L126.13,55.17L122.75,101.04"/></g></g><g id="Actor_.12"><g style="stroke:#000000;stroke-width:0.176"><path d="M178.73,105.24L179.48,94.92L179.49,94.66L179.48,94.39L179.45,94.14L179.41,93.92L179.36,93.75L177.10,88.50L177.04,88.41L176.98,88.40"/><path d="M177.16,88.40L178.14,88.36L178.16,88.27L178.18,88.23L178.21,88.23L178.23,88.27L178.25,88.35L178.72,88.34L178.78,88.43L178.85,88.58L181.04,93.69L181.09,93.85L181.13,94.07L181.16,94.33L181.17,94.59L181.16,94.85L180.42,105.17"/><path d="M178.25,88.35L178.14,88.36"/><path d="M177.72,87.24L177.69,87.41L177.70,87.63L177.73,87.82L177.76,87.87L177.78,87.89L177.80,87.87L177.82,87.82L177.83,87.73L177.84,87.63L177.83,87.40L177.79,87.24L177.76,87.20L177.74,87.20L177.72,87.24"/><path d="M177.89,85.94L177.92,85.96L177.94,85.94L177.97,85.81L177.98,85.70L177.97,85.59L177.95,85.39L177.93,85.31L177.90,85.28L177.88,85.28L177.86,85.31L177.83,85.48L177.84,85.70L177.85,85.81L177.89,85.94"/><path d="M177.98,83.46L178.00,83.39L178.02,83.35L178.04,83.35L178.07,83.39L178.10,83.55L178.12,83.77L178.10,83.96L178.08,84.01L178.06,84.03L178.03,84.01L178.01,83.96L177.98,83.77L177.97,83.66L177.98,83.46"/><path d="M178.16,81.42L178.14,81.46L178.12,81.53L178.11,81.73L178.12,81.85L178.15,82.03L178.17,82.09L178.20,82.10L178.22,82.09L178.24,82.03L178.25,81.95L178.25,81.73L178.23,81.52L178.20,81.46L178.18,81.42L178.16,81.42"/><path d="M178.32,86.30L178.30,86.34L178.28,86.41L178.27,86.62L178.29,86.83L178.31,86.92L178.34,86.97L178.36,86.99L178.38,86.97L178.41,86.84L178.42,86.61L178.39,86.41L178.37,86.34L178.34,86.30L178.32,86.30"/><path d="M178.43,84.91L178.48,85.04L178.50,85.06L178.52,85.04L178.54,84.99L178.56,84.80L178.55,84.57L178.51,84.41L178.48,84.38L178.46,84.38L178.44,84.41L178.42,84.48L178.41,84.69L178.43,84.91"/><path d="M178.61,83.11L178.64,83.13L178.66,83.11L178.68,83.06L178.70,82.87L178.68,82.65L178.67,82.55L178.65,82.49L178.62,82.45L178.60,82.45L178.58,82.49L178.55,82.65L178.55,82.76L178.57,82.98L178.61,83.11"/><path d="M178.75,81.19L178.71,81.05L178.70,80.95L178.69,80.72L178.72,80.56L178.74,80.52L178.76,80.52L178.79,80.56L178.82,80.72L178.84,80.94L178.83,81.05L178.80,81.18L178.78,81.20L178.75,81.19"/><path d="M178.31,80.16L178.34,80.18L178.36,80.16L178.39,80.02L178.39,79.92L178.38,79.69L178.36,79.60L178.34,79.53L178.32,79.49L178.30,79.49L178.28,79.53L178.25,79.70L178.26,79.92L178.29,80.11L178.31,80.16"/><path d="M178.89,79.26L178.92,79.28L178.94,79.25L178.97,79.12L178.98,79.01L178.96,78.79L178.95,78.70L178.92,78.63L178.90,78.59L178.88,78.59L178.86,78.63L178.83,78.80L178.84,79.02L178.87,79.21L178.89,79.26"/><path d="M179.17,79.45L178.95,77.30L179.00,77.23L178.97,76.98L178.98,76.77L179.00,76.70L179.02,76.67L179.04,76.67L179.06,76.70L179.10,76.86L179.11,77.05L181.21,73.79L182.39,85.31L180.13,88.82L179.17,79.45"/><path d="M178.45,78.23L178.43,78.18L178.39,77.99L178.39,77.77L178.41,77.60L178.43,77.57L178.46,77.57L178.48,77.60L178.50,77.68L178.53,77.87L178.53,77.99L178.53,78.10L178.50,78.23L178.47,78.25L178.45,78.23"/><path d="M178.59,76.30L178.57,76.25L178.53,76.06L178.53,75.84L178.55,75.68L178.57,75.64L178.60,75.64L178.62,75.68L178.64,75.75L178.67,75.95L178.67,76.06L178.67,76.17L178.64,76.30L178.61,76.32L178.59,76.30"/><path d="M179.00,77.23L179.11,77.05"/><path d="M179.17,75.40L179.13,75.27L179.11,75.05L179.11,74.94L179.13,74.77L179.15,74.74L179.18,74.74L179.20,74.78L179.22,74.84L179.24,74.94L179.25,75.16L179.25,75.27L179.22,75.40L179.19,75.42L179.17,75.40"/><path d="M178.70,74.29L178.73,74.38L178.75,74.39L178.77,74.37L178.79,74.32L178.81,74.13L178.80,73.91L178.78,73.81L178.76,73.75L178.74,73.71L178.71,73.71L178.69,73.75L178.67,73.91L178.67,74.14L178.70,74.29"/><path d="M178.87,72.45L178.84,72.39L178.81,72.21L178.81,71.99L178.83,71.82L178.85,71.78L178.88,71.78L178.90,71.82L178.92,71.89L178.95,72.09L178.95,72.20L178.94,72.31L178.91,72.45L178.89,72.47L178.87,72.45"/><path d="M178.96,70.38L178.98,70.47L179.01,70.52L179.03,70.54L179.05,70.52L179.07,70.47L179.09,70.28L179.08,70.05L179.04,69.89L179.01,69.85L178.99,69.85L178.97,69.89L178.95,69.96L178.94,70.17L178.96,70.38"/><path d="M179.15,68.59L179.10,68.46L179.09,68.35L179.08,68.13L179.11,67.96L179.13,67.93L179.15,67.93L179.18,67.97L179.20,68.03L179.22,68.13L179.23,68.35L179.22,68.46L179.19,68.59L179.17,68.61L179.15,68.59"/><path d="M180.13,88.82L181.47,88.76L183.74,85.26L182.39,85.31"/><path d="M179.26,73.30L179.29,73.42L179.31,73.47L179.33,73.49L179.36,73.47L179.37,73.42L179.39,73.23L179.38,73.01L179.34,72.85L179.32,72.81L179.29,72.81L179.27,72.85L179.26,72.92L179.25,73.12L179.26,73.30"/><path d="M179.39,71.32L179.43,71.49L179.45,71.55L179.47,71.57L179.49,71.55L179.51,71.49L179.53,71.30L179.52,71.08L179.48,70.92L179.46,70.88L179.43,70.88L179.41,70.92L179.40,70.99L179.39,71.19L179.39,71.32"/><path d="M179.59,69.62L179.54,69.48L179.52,69.27L179.53,69.16L179.55,68.99L179.57,68.95L179.60,68.95L179.62,68.99L179.66,69.15L179.67,69.38L179.66,69.49L179.63,69.62L179.61,69.64L179.59,69.62"/><path d="M179.73,67.69L179.68,67.56L179.66,67.34L179.67,67.23L179.69,67.06L179.71,67.03L179.74,67.03L179.78,67.13L179.80,67.23L179.81,67.45L179.79,67.64L179.77,67.69L179.75,67.71L179.73,67.69"/><path d="M179.28,66.66L179.26,66.61L179.23,66.42L179.22,66.20L179.25,66.04L179.27,66.00L179.29,66.00L179.34,66.10L179.35,66.20L179.37,66.42L179.35,66.61L179.33,66.66L179.31,66.68L179.28,66.66"/><path d="M179.80,65.41L179.82,65.63L179.84,65.71L179.87,65.76L179.89,65.78L179.91,65.76L179.93,65.71L179.95,65.52L179.94,65.30L179.92,65.20L179.90,65.14L179.87,65.10L179.85,65.10L179.83,65.14L179.81,65.21L179.80,65.41"/><path d="M179.42,64.74L179.38,64.60L179.37,64.50L179.36,64.27L179.39,64.11L179.41,64.07L179.43,64.07L179.46,64.11L179.48,64.18L179.50,64.38L179.51,64.49L179.50,64.60L179.47,64.74L179.45,64.75L179.42,64.74"/><path d="M180.03,63.85L180.00,63.84L179.98,63.78L179.96,63.70L179.94,63.48L179.95,63.28L179.97,63.21L179.99,63.17L180.01,63.17L180.04,63.21L180.06,63.27L180.08,63.48L180.08,63.70L180.05,63.83L180.03,63.85"/><path d="M179.56,62.81L179.52,62.67L179.50,62.46L179.51,62.25L179.53,62.18L179.55,62.14L179.57,62.14L179.60,62.18L179.63,62.34L179.65,62.57L179.64,62.68L179.61,62.81L179.59,62.83L179.56,62.81"/><path d="M180.14,61.91L180.10,61.77L180.08,61.56L180.08,61.45L180.11,61.28L180.13,61.24L180.15,61.24L180.18,61.28L180.20,61.35L180.21,61.44L180.23,61.66L180.22,61.77L180.19,61.91L180.17,61.93L180.14,61.91"/><path d="M179.73,60.90L179.70,60.88L179.68,60.83L179.66,60.75L179.64,60.53L179.65,60.32L179.67,60.25L179.69,60.22L179.71,60.22L179.73,60.25L179.75,60.32L179.78,60.52L179.78,60.75L179.75,60.88L179.73,60.90"/><path d="M179.84,58.95L179.82,58.90L179.78,58.71L179.78,58.49L179.80,58.33L179.83,58.29L179.85,58.29L179.87,58.33L179.91,58.49L179.92,58.71L179.92,58.82L179.89,58.95L179.86,58.97L179.84,58.95"/><path d="M179.98,57.03L179.96,56.97L179.92,56.79L179.92,56.56L179.94,56.40L179.96,56.36L179.99,56.36L180.01,56.40L180.03,56.47L180.06,56.67L180.06,56.78L180.04,56.97L180.03,57.02L180.00,57.04L179.98,57.03"/><path d="M180.12,55.10L180.10,55.04L180.06,54.86L180.06,54.64L180.08,54.47L180.10,54.43L180.13,54.43L180.15,54.47L180.18,54.58L180.20,54.85L180.20,54.96L180.16,55.10L180.14,55.12L180.12,55.10"/><path d="M179.78,51.94L180.20,52.91L180.22,53.03L180.26,53.17L180.28,53.19L180.31,53.16L180.50,53.60L180.55,53.68L180.61,53.69L180.66,53.61L180.70,53.46L180.72,53.24L181.04,48.84L179.69,45.68"/><path d="M180.22,59.52L180.22,59.63L180.24,59.84L180.26,59.93L180.28,59.98L180.31,60.00L180.33,59.98L180.35,59.93L180.37,59.74L180.35,59.51L180.32,59.35L180.29,59.32L180.27,59.32L180.25,59.35L180.22,59.52"/><path d="M180.38,57.45L180.36,57.59L180.37,57.81L180.40,58.00L180.42,58.05L180.45,58.07L180.47,58.05L180.49,58.00L180.50,57.91L180.50,57.81L180.49,57.59L180.47,57.49L180.45,57.43L180.43,57.39L180.41,57.39L180.38,57.45"/><path d="M180.58,56.14L180.56,56.13L180.54,56.07L180.50,55.89L180.50,55.77L180.51,55.57L180.52,55.50L180.54,55.46L180.57,55.46L180.59,55.50L180.63,55.66L180.64,55.77L180.64,55.99L180.61,56.12L180.58,56.14"/><path d="M180.61,53.69L180.64,53.69L180.64,53.85L180.66,54.06L180.70,54.20L180.72,54.22L180.75,54.20L180.76,54.14L180.78,54.06L180.78,53.84L180.76,53.68L182.63,53.61L182.68,53.53L182.72,53.37L182.74,53.16L182.96,50.12L185.48,55.97"/><path d="M180.64,53.69L180.76,53.68"/><path d="M180.20,52.91L180.31,53.16"/><path d="M181.04,48.84L183.06,48.76L182.96,50.12"/><path d="M180.48,44.68L180.59,44.69L180.70,44.87L181.03,45.63L180.24,45.66"/><path d="M181.03,45.63L181.70,45.60L183.06,48.76"/><path d="M180.80,45.64L180.73,45.47L180.63,45.40L180.54,45.48L180.48,45.65"/><path d="M181.21,73.79L182.56,73.74L183.74,85.26"/><path d="M183.67,112.39L183.77,112.24L183.85,111.93L183.90,111.50L187.45,62.32L187.46,61.81L187.44,61.27L187.39,60.76L187.31,60.32L187.21,59.99L186.48,58.30"/><path d="M183.71,111.22L183.64,111.50L183.56,111.65L183.47,111.65L183.37,111.51L183.29,111.23L183.21,110.77L183.18,110.42L183.17,109.97L183.19,109.55L183.24,109.22L183.31,109.00L183.40,108.92L183.50,108.99L183.55,109.08L183.59,109.20L183.67,109.54L183.72,109.94L183.75,110.40L183.74,110.84L183.71,111.22"/><path d="M183.47,111.65L183.56,111.65"/><path d="M183.82,104.01L183.84,104.22L183.88,104.36L183.90,104.38L183.93,104.36L183.94,104.30L183.96,104.11L183.96,104.00L183.93,103.80L183.91,103.73L183.89,103.69L183.86,103.69L183.84,103.73L183.83,103.80L183.82,104.01"/><path d="M183.44,103.33L183.40,103.19L183.38,103.09L183.38,102.87L183.40,102.70L183.42,102.67L183.45,102.67L183.47,102.70L183.49,102.78L183.52,102.97L183.52,103.09L183.51,103.20L183.48,103.33L183.46,103.35L183.44,103.33"/><path d="M184.00,102.38L183.96,102.19L183.96,101.97L183.98,101.80L184.00,101.76L184.03,101.76L184.05,101.80L184.09,101.96L184.10,102.19L184.10,102.30L184.07,102.43L184.04,102.45L184.02,102.43L184.00,102.38"/><path d="M183.52,101.04L183.54,101.27L183.55,101.35L183.58,101.40L183.60,101.42L183.62,101.40L183.65,101.27L183.66,101.06L183.63,100.84L183.61,100.78L183.59,100.74L183.56,100.74L183.54,100.78L183.53,100.85L183.52,101.04"/><path d="M184.10,100.15L184.12,100.37L184.14,100.45L184.16,100.50L184.18,100.52L184.20,100.50L184.22,100.45L184.24,100.26L184.24,100.15L184.21,99.95L184.19,99.88L184.17,99.84L184.14,99.84L184.12,99.87L184.11,99.94L184.10,100.15"/><path d="M183.66,99.24L183.69,99.42L183.72,99.47L183.74,99.49L183.76,99.47L183.78,99.42L183.80,99.23L183.80,99.12L183.77,98.92L183.75,98.85L183.72,98.81L183.70,98.81L183.68,98.85L183.66,98.92L183.65,99.06L183.66,99.24"/><path d="M183.86,97.55L183.81,97.41L183.79,97.19L183.80,96.99L183.82,96.92L183.84,96.88L183.86,96.88L183.89,96.92L183.91,96.99L183.93,97.08L183.94,97.30L183.93,97.41L183.90,97.55L183.88,97.57L183.86,97.55"/><path d="M183.99,95.62L184.02,95.64L184.04,95.62L184.07,95.49L184.08,95.38L184.05,95.09L184.03,94.99L184.00,94.95L183.98,94.95L183.96,94.99L183.93,95.16L183.94,95.38L183.97,95.57L183.99,95.62"/><path d="M184.09,93.11L184.07,93.23L184.08,93.45L184.11,93.64L184.13,93.69L184.16,93.71L184.18,93.69L184.20,93.64L184.21,93.55L184.21,93.34L184.20,93.23L184.18,93.11L184.14,93.03L184.12,93.03L184.09,93.11"/><path d="M184.24,98.11L184.24,98.33L184.26,98.44L184.27,98.52L184.30,98.57L184.32,98.59L184.34,98.57L184.36,98.52L184.38,98.33L184.37,98.11L184.33,97.95L184.31,97.91L184.28,97.91L184.26,97.95L184.24,98.11"/><path d="M184.46,96.66L184.44,96.65L184.41,96.59L184.38,96.41L184.37,96.29L184.38,96.09L184.40,96.02L184.42,95.98L184.44,95.98L184.47,96.02L184.49,96.08L184.52,96.29L184.51,96.51L184.48,96.65L184.46,96.66"/><path d="M184.55,94.67L184.58,94.72L184.60,94.74L184.62,94.72L184.64,94.67L184.65,94.58L184.66,94.36L184.65,94.25L184.63,94.16L184.61,94.09L184.58,94.05L184.56,94.05L184.54,94.09L184.51,94.26L184.52,94.48L184.55,94.67"/><path d="M184.71,92.79L184.69,92.74L184.66,92.55L184.65,92.33L184.68,92.16L184.70,92.13L184.72,92.13L184.75,92.16L184.77,92.24L184.79,92.43L184.80,92.55L184.78,92.74L184.76,92.79L184.74,92.81L184.71,92.79"/><path d="M184.21,91.41L184.22,91.52L184.25,91.71L184.27,91.76L184.30,91.78L184.32,91.76L184.34,91.71L184.36,91.52L184.35,91.41L184.33,91.21L184.31,91.14L184.28,91.10L184.26,91.10L184.24,91.14L184.22,91.21L184.21,91.41"/><path d="M184.85,90.86L184.88,90.88L184.90,90.86L184.93,90.73L184.94,90.62L184.92,90.40L184.91,90.30L184.89,90.24L184.86,90.20L184.84,90.20L184.82,90.24L184.79,90.40L184.80,90.62L184.83,90.81L184.85,90.86"/><path d="M184.41,89.84L184.39,89.78L184.36,89.60L184.35,89.37L184.38,89.21L184.40,89.17L184.42,89.17L184.44,89.21L184.47,89.28L184.49,89.48L184.49,89.59L184.49,89.70L184.46,89.83L184.44,89.85L184.41,89.84"/><path d="M184.94,88.70L184.97,88.88L184.99,88.94L185.02,88.95L185.04,88.93L185.06,88.88L185.08,88.69L185.06,88.47L185.05,88.37L185.03,88.31L185.00,88.27L184.98,88.27L184.96,88.31L184.94,88.38L184.93,88.58L184.94,88.70"/><path d="M184.55,87.91L184.57,87.93L184.60,87.91L184.61,87.86L184.63,87.66L184.63,87.55L184.60,87.35L184.58,87.28L184.56,87.24L184.54,87.24L184.51,87.28L184.49,87.45L184.49,87.67L184.53,87.86L184.55,87.91"/><path d="M185.11,86.95L185.08,86.77L185.07,86.55L185.10,86.38L185.12,86.34L185.14,86.34L185.16,86.38L185.18,86.45L185.20,86.54L185.21,86.65L185.21,86.87L185.20,86.95L185.18,87.01L185.16,87.03L185.13,87.01L185.11,86.95"/><path d="M184.65,85.35L184.63,85.52L184.63,85.74L184.67,85.93L184.69,85.98L184.71,86.00L184.74,85.98L184.75,85.93L184.77,85.84L184.77,85.74L184.76,85.52L184.74,85.42L184.72,85.35L184.70,85.32L184.67,85.32L184.65,85.35"/><path d="M184.79,83.43L184.77,83.59L184.77,83.81L184.81,84.00L184.83,84.05L184.85,84.07L184.87,84.05L184.89,84.00L184.91,83.91L184.91,83.81L184.90,83.60L184.88,83.49L184.86,83.43L184.84,83.39L184.81,83.39L184.79,83.43"/><path d="M184.93,81.50L184.91,81.66L184.91,81.89L184.94,82.07L184.97,82.12L184.99,82.14L185.01,82.12L185.04,81.99L185.05,81.77L185.04,81.66L185.00,81.50L184.98,81.46L184.95,81.46L184.93,81.50"/><path d="M185.08,80.14L185.11,80.20L185.13,80.22L185.15,80.20L185.17,80.14L185.18,80.06L185.19,79.95L185.18,79.73L185.16,79.64L185.12,79.54L185.09,79.54L185.07,79.57L185.05,79.73L185.05,79.96L185.08,80.14"/><path d="M185.23,84.45L185.21,84.62L185.21,84.84L185.25,85.03L185.27,85.08L185.29,85.10L185.32,85.08L185.33,85.03L185.35,84.94L185.35,84.84L185.34,84.62L185.32,84.52L185.30,84.45L185.28,84.41L185.26,84.42L185.23,84.45"/><path d="M185.39,82.49L185.37,82.52L185.36,82.60L185.35,82.80L185.37,83.02L185.39,83.10L185.41,83.15L185.43,83.17L185.46,83.15L185.49,83.02L185.49,82.80L185.48,82.69L185.44,82.53L185.42,82.49L185.39,82.49"/><path d="M185.57,81.24L185.55,81.23L185.53,81.17L185.49,80.99L185.49,80.76L185.50,80.67L185.51,80.60L185.53,80.56L185.56,80.56L185.58,80.60L185.62,80.76L185.63,80.87L185.62,81.09L185.59,81.22L185.57,81.24"/><path d="M185.69,79.30L185.65,79.16L185.63,79.06L185.63,78.83L185.65,78.67L185.67,78.63L185.70,78.63L185.72,78.67L185.74,78.74L185.77,78.94L185.77,79.05L185.76,79.16L185.73,79.30L185.71,79.32L185.69,79.30"/><path d="M185.25,78.27L185.27,78.29L185.29,78.27L185.32,78.14L185.33,78.03L185.33,77.91L185.30,77.72L185.28,77.64L185.25,77.60L185.23,77.60L185.21,77.64L185.18,77.81L185.19,78.03L185.20,78.13L185.25,78.27"/><path d="M185.83,77.37L185.80,77.32L185.77,77.13L185.77,76.91L185.79,76.74L185.81,76.70L185.83,76.70L185.86,76.74L185.90,76.90L185.91,77.13L185.90,77.24L185.87,77.37L185.85,77.39L185.83,77.37"/><path d="M185.41,76.36L185.38,76.34L185.36,76.29L185.33,76.10L185.32,75.99L185.33,75.78L185.35,75.71L185.37,75.68L185.39,75.68L185.42,75.72L185.44,75.78L185.46,75.99L185.46,76.21L185.43,76.34L185.41,76.36"/><path d="M185.97,75.44L185.92,75.31L185.91,75.20L185.90,74.98L185.93,74.81L185.95,74.78L185.97,74.78L186.00,74.81L186.02,74.89L186.05,75.08L186.05,75.20L186.04,75.31L186.01,75.44L185.99,75.46L185.97,75.44"/><path d="M185.52,74.41L185.48,74.28L185.47,74.17L185.46,73.95L185.49,73.79L185.51,73.75L185.53,73.75L185.56,73.79L185.58,73.86L185.60,74.06L185.61,74.17L185.60,74.28L185.57,74.41L185.55,74.43L185.52,74.41"/><path d="M186.10,73.51L186.06,73.38L186.04,73.16L186.05,72.96L186.07,72.89L186.09,72.85L186.11,72.85L186.14,72.89L186.17,73.05L186.19,73.27L186.18,73.38L186.15,73.51L186.13,73.53L186.10,73.51"/><path d="M185.69,72.50L185.66,72.49L185.64,72.43L185.61,72.25L185.60,72.13L185.61,71.93L185.63,71.86L185.65,71.82L185.67,71.82L185.70,71.86L185.73,72.02L185.74,72.13L185.74,72.35L185.71,72.48L185.69,72.50"/><path d="M185.83,70.58L185.80,70.56L185.78,70.51L185.75,70.33L185.74,70.21L185.75,70.00L185.77,69.93L185.79,69.89L185.81,69.89L185.83,69.93L185.85,70.00L185.88,70.20L185.88,70.43L185.85,70.56L185.83,70.58"/><path d="M185.88,68.39L185.92,68.58L185.94,68.63L185.96,68.65L185.99,68.63L186.00,68.58L186.02,68.39L186.02,68.27L185.99,68.08L185.97,68.00L185.95,67.97L185.93,67.97L185.90,68.00L185.89,68.07L185.88,68.17L185.88,68.39"/><path d="M186.08,66.70L186.06,66.65L186.02,66.46L186.02,66.24L186.04,66.08L186.06,66.04L186.09,66.04L186.11,66.08L186.13,66.15L186.16,66.35L186.16,66.46L186.14,66.65L186.13,66.70L186.10,66.72L186.08,66.70"/><path d="M186.22,71.53L186.19,71.35L186.18,71.12L186.21,70.96L186.23,70.92L186.25,70.92L186.28,70.96L186.30,71.02L186.31,71.12L186.32,71.23L186.32,71.45L186.31,71.53L186.29,71.58L186.27,71.60L186.24,71.59L186.22,71.53"/><path d="M186.38,69.66L186.36,69.61L186.33,69.42L186.32,69.20L186.35,69.03L186.37,68.99L186.39,68.99L186.42,69.03L186.44,69.10L186.46,69.30L186.47,69.41L186.46,69.52L186.43,69.66L186.41,69.68L186.38,69.66"/><path d="M186.52,67.73L186.50,67.68L186.47,67.49L186.46,67.27L186.49,67.10L186.51,67.07L186.53,67.07L186.55,67.10L186.58,67.18L186.60,67.37L186.60,67.49L186.59,67.68L186.57,67.73L186.55,67.75L186.52,67.73"/><path d="M187.00,62.78L186.99,62.78L187.09,62.77L187.00,62.78"/><path d="M186.99,62.78L186.90,62.63L186.80,62.31L186.74,61.98L186.70,61.54L186.69,61.09L186.71,60.67L186.76,60.34L186.84,60.12L186.93,60.04L187.02,60.11L187.12,60.33L187.19,60.66L187.25,61.07L187.27,61.42L187.27,61.96L187.23,62.34L187.17,62.62L187.09,62.77"/></g><g style="stroke:#000000;stroke-width:0.529"><path d="M183.81,48.91L182.05,44.81L181.93,44.63L181.82,44.62L180.48,44.68L180.37,44.84L180.29,45.14L180.24,45.66L179.69,45.68L179.37,50.09L179.36,50.34L179.37,50.61L179.40,50.87L179.44,51.09L179.49,51.25L179.78,51.94L177.16,88.40L176.98,88.40L176.93,88.48L176.89,88.64L176.87,88.85L176.12,99.17L178.73,105.24L180.42,105.17L183.44,112.21L183.56,112.38L183.67,112.39L185.01,112.34L185.12,112.18L185.20,111.87L185.25,111.44L188.79,62.26L188.81,61.75L188.79,61.22L188.74,60.70L188.66,60.26L188.55,59.94L186.56,55.30"/></g></g><g id="Actor_.13"><g style="stroke:#000000;stroke-width:0.176"><path d="M64.24,110.37L64.33,110.14L64.32,110.05L64.21,109.95"/><path d="M64.32,110.05L66.25,109.66L65.59,109.46L65.56,109.04"/><path d="M66.25,109.66L67.24,109.96L64.33,110.14"/><path d="M64.32,108.36L64.33,108.28L66.29,108.76L65.85,108.93"/><path d="M64.33,108.28L64.24,107.89"/><path d="M64.95,113.12L64.91,112.59L65.67,111.94L65.26,112.32L65.35,112.71L66.96,112.36L68.00,112.09L66.88,111.85L65.76,111.58L65.56,111.52L65.59,111.15L65.48,111.06"/><path d="M64.91,112.59L64.89,112.57"/><path d="M65.47,111.10L65.47,111.14L65.50,111.27L64.56,111.76L64.52,112.23"/><path d="M65.26,112.32L65.25,112.36L65.28,112.89L65.35,112.71"/><path d="M65.28,112.89L65.79,112.94L67.65,113.01L66.23,113.10"/><path d="M65.94,111.62L65.15,112.34"/><path d="M64.56,111.76L64.54,111.69"/><path d="M64.53,107.09L64.55,107.05L65.25,107.49L65.28,107.18L65.32,107.37L65.35,107.49L66.67,107.79L68.00,108.12L67.68,108.23L66.29,108.76"/><path d="M65.35,107.49L65.26,107.72L65.24,107.66L65.25,107.49"/><path d="M64.55,107.05L64.51,106.52"/><path d="M65.28,107.18L65.32,107.17L64.90,106.84L64.94,106.37L64.88,106.31L64.85,106.29"/><path d="M65.32,107.17L66.45,106.86L67.64,106.58L66.28,106.45L64.94,106.37"/><path d="M65.25,107.59L65.24,107.58"/><path d="M66.63,108.63L65.26,107.72"/><path d="M64.90,106.84L64.89,106.82L64.86,106.47"/><path d="M65.67,111.94L66.00,111.64"/><path d="M65.56,111.52L65.50,111.27"/><path d="M65.59,111.15L67.47,110.47L68.14,110.22L67.24,109.96"/><path d="M67.25,109.96L65.86,110.82"/><path d="M65.59,109.46L65.55,109.43"/><path d="M67.65,113.01L72.22,112.82"/><path d="M73.42,106.11L73.54,106.34L73.64,106.65L73.83,107.48L73.96,108.52L74.03,109.65L74.01,110.75L73.92,111.70L73.77,112.39L73.57,112.76"/><path d="M75.52,110.55L75.60,110.42L75.65,110.16L75.69,109.80L75.69,109.39L75.67,108.96L75.62,108.58L75.55,108.26L75.51,108.15L75.46,108.06L75.39,107.99"/></g><g style="stroke:#000000;stroke-width:0.529"><path d="M83.26,110.25L75.52,110.55L73.57,112.76L72.22,112.82L66.23,113.10L64.95,113.12L64.86,113.04L64.89,112.57L65.15,112.34L64.52,112.23L64.45,111.92L64.54,111.69L65.47,111.10L65.48,111.06L65.86,110.82L64.79,110.53L64.24,110.37L64.21,109.95L65.55,109.43L65.47,109.36L65.47,109.27L65.56,109.04L65.85,108.93L64.32,108.36L64.21,108.26L64.24,107.89L65.24,107.58L64.53,107.09L64.44,106.70L64.51,106.52L64.86,106.47L64.85,106.29L66.02,106.22L73.19,105.93L73.42,106.11L75.39,107.99L83.16,107.69"/></g></g><g id="Actor_.14"><g style="stroke:#000000;stroke-width:0.176"><path d="M81.47,96.09L81.45,96.12L81.01,97.40L80.65,99.11L80.38,101.18L80.20,103.54L80.13,106.10L80.16,107.81"/><path d="M81.46,121.17L81.25,120.46L80.77,118.31L80.38,115.85L80.24,114.71"/><path d="M80.27,110.37L80.33,111.43L80.56,113.88L82.91,119.42"/><path d="M80.56,113.88L82.71,112.58L83.29,112.25"/><path d="M82.20,107.73L82.02,107.40L81.64,106.51L81.27,105.45L81.02,104.37L80.90,103.32L80.91,102.31L81.05,101.32L81.31,100.40L81.71,99.52L82.11,98.88"/><path d="M82.02,107.40L81.50,105.51L81.43,103.53L81.80,101.53L82.36,100.16"/><path d="M106.07,95.56L99.71,95.82"/><path d="M104.14,121.74L102.41,121.81"/><path d="M102.42,121.27L102.90,121.25L103.05,119.17"/><path d="M102.55,111.15L103.65,111.11"/></g><g style="stroke:#000000;stroke-width:0.529"><path d="M79.85,110.39L80.06,113.18L80.24,114.71"/><path d="M81.06,94.82L80.76,95.68L80.36,97.46L80.05,99.60L79.84,102.05L79.74,104.72L79.74,107.52L79.75,107.82"/><path d="M82.22,123.27L81.78,122.24L81.46,121.17"/><path d="M94.82,91.86L104.33,91.47L106.07,95.56L105.85,98.59L101.57,98.76"/><path d="M104.00,121.39L104.14,121.74L103.92,124.76L102.35,124.83"/><path d="M103.05,119.17L103.65,111.11L103.12,109.86L102.56,109.88"/></g></g><g id="Actor_.15"><g style="stroke:#000000;stroke-width:0.176"><path d="M82.42,107.72L82.28,107.36L82.01,106.29L81.88,105.21L81.89,104.14L82.03,103.09L82.31,102.08L82.55,101.51"/><path d="M106.80,104.68L102.58,104.86"/><path d="M103.11,118.42L105.84,118.30"/></g><g style="stroke:#000000;stroke-width:0.529"><path d="M82.44,100.72L82.08,101.53L81.68,103.65L81.78,105.74L82.39,107.72"/><path d="M103.23,116.75L105.14,116.66L105.84,118.30L105.62,121.32L102.42,121.46"/><path d="M102.57,107.88L106.59,107.71L106.80,104.68L106.11,103.05L102.58,103.20"/><path d="M103.17,98.69L103.11,99.53L102.57,99.55"/></g></g><g id="Actor_.16"><g style="stroke:#000000;stroke-width:0.176"><path d="M65.14,82.74L64.92,82.03L64.45,79.88L64.05,77.43L63.92,76.29"/><path d="M63.94,71.94L64.00,73.01L64.23,75.45L66.38,74.15L66.96,73.83"/><path d="M64.23,75.45L66.59,80.99"/><path d="M65.14,57.67L65.13,57.69L64.69,58.98L64.32,60.69L64.05,62.76L63.88,65.11L63.81,67.67L63.83,69.38"/><path d="M65.34,68.14L65.32,68.09L64.94,67.02L64.69,65.95L64.57,64.90L64.58,63.88L64.72,62.90L64.99,61.97L65.38,61.09L65.79,60.45"/><path d="M65.32,68.09L65.69,68.97L65.18,67.09L65.10,65.11L65.47,63.11L66.03,61.73"/><path d="M65.69,68.97L65.87,69.30"/><path d="M89.74,57.13L88.49,57.18"/></g><g style="stroke:#000000;stroke-width:0.529"><path d="M63.52,71.96L63.74,74.76L63.92,76.29"/><path d="M64.73,56.39L64.43,57.26L64.03,59.03L63.73,61.17L63.52,63.62L63.41,66.29L63.41,69.10L63.42,69.40"/><path d="M65.89,84.84L65.46,83.81L65.14,82.74"/><path d="M89.57,59.54L89.74,57.13L88.01,53.04L86.75,53.09"/></g></g><g id="Actor_.17"><g style="stroke:#000000;stroke-width:0.176"><path d="M145.89,100.55L146.07,100.55L146.25,100.83L146.41,101.35L146.53,102.03L146.61,102.88L146.63,103.73L146.59,104.51L146.49,105.13L146.35,105.54L146.18,105.68"/><path d="M146.38,104.01L146.39,104.02L146.37,104.20L146.30,104.53L146.20,104.71L146.09,104.71L145.97,104.54L145.87,104.21L145.79,103.76L145.75,103.23L145.73,102.70L145.76,102.21L145.82,101.81L145.91,101.55L146.02,101.46L146.13,101.55L146.24,101.81L146.31,102.13L146.27,102.42L146.25,102.79L146.26,103.18L146.29,103.57L146.35,103.90L146.38,104.01"/><path d="M146.39,104.02L146.42,103.75L146.43,103.23L146.40,102.70L146.31,102.13"/><path d="M146.51,97.24L146.48,96.97L146.48,96.69L146.49,96.43L146.52,96.22L146.57,96.08L146.63,96.04L146.69,96.08L146.74,96.22L146.79,96.43L146.83,96.69L146.84,96.95L146.84,97.24L146.81,97.48L146.77,97.65L146.72,97.75L146.66,97.75L146.60,97.65L146.55,97.48L146.51,97.24"/><path d="M146.47,94.35L146.65,94.35L146.83,94.63L146.99,95.15L147.11,95.86L147.19,96.68L147.21,97.53L147.17,98.31L147.07,98.93L146.93,99.34L146.76,99.48"/><path d="M149.12,100.42L149.43,100.42L149.61,100.69L149.77,101.21L149.90,101.92L149.97,102.75L149.99,103.59L149.95,104.37L149.85,105.00L149.72,105.40L149.59,105.53"/><path d="M149.58,94.23L150.01,94.22L150.19,94.49L150.35,95.01L150.48,95.72L150.55,96.55L150.57,97.39L150.53,98.17L150.43,98.80L150.29,99.20L150.13,99.34L149.20,99.38"/><path d="M150.14,48.69L150.20,48.87L150.26,48.96L150.32,48.96L150.37,48.87L150.41,48.69L150.43,48.45L150.43,48.18L150.42,47.90L150.38,47.64L150.34,47.43L150.28,47.30L150.22,47.25L150.16,47.30L150.12,47.43L150.08,47.64L150.07,47.90L150.08,48.18L150.10,48.46L150.14,48.69"/><path d="M150.95,52.82L151.11,52.58L151.24,52.07L151.32,51.36L151.33,50.53L151.29,49.66L151.19,48.86L151.04,48.22L150.81,47.69L150.76,47.50L150.61,46.51L150.45,45.93L150.27,45.60L150.09,45.55"/><path d="M150.27,45.60L152.30,45.47"/><path d="M152.47,92.74L152.45,92.78L152.13,93.19L151.78,93.12L151.43,92.55L151.12,91.55L150.86,90.20L150.69,88.62L150.61,86.96L150.64,85.35L150.78,83.95L151.00,82.87L151.29,82.22L151.63,82.05L151.99,82.37L152.32,83.17L152.61,84.36L152.83,85.82L152.81,86.17L152.83,87.69L152.95,89.21L152.97,89.35L152.90,90.65L152.72,91.90L152.47,92.74L152.21,92.68L151.88,92.16L151.59,91.23L151.35,89.99L151.19,88.53L151.13,86.99L151.15,85.51L151.28,84.21L151.48,83.22L151.75,82.62L152.03,82.48"/><path d="M150.83,51.46L150.75,51.40L150.71,51.32L150.67,51.21L150.60,50.92L150.56,50.55L150.53,50.16L150.54,49.77L150.57,49.44L150.63,49.20L150.70,49.07L150.78,49.07L150.86,49.19L150.94,49.44L151.00,49.77L151.03,50.16L151.04,50.55L151.02,50.92L150.98,51.19L150.91,51.40L150.83,51.46"/><path d="M152.39,119.29L152.35,118.77L152.33,118.23L152.36,117.74L152.42,117.34L152.51,117.09L152.62,117.00L152.73,117.09L152.84,117.34L152.91,117.67L152.87,117.96L152.85,118.32L152.86,118.72L152.89,119.10L152.95,119.43L152.99,119.55L152.97,119.74L152.90,120.07L152.80,120.24L152.69,120.25L152.57,120.07L152.47,119.74L152.39,119.29"/><path d="M152.70,109.70L152.30,108.37L151.99,106.73L151.76,104.85L151.64,103.02L151.63,102.85L151.60,100.84L151.68,98.95L151.85,97.29L152.12,95.98L152.47,95.07L152.86,94.65L153.29,94.72L153.71,95.28L154.12,96.31L154.21,96.66L154.04,97.50L153.87,99.07L153.79,100.86L153.82,102.76L153.95,104.66L154.17,106.44L154.37,107.50L154.26,107.51L154.47,107.63L154.68,108.09L154.77,108.42L154.90,107.48"/><path d="M153.15,114.52L153.32,114.38L153.46,113.98L153.56,113.35L153.60,112.57L153.58,111.73L153.50,110.90L153.38,110.19L153.22,109.67L153.04,109.40L152.86,109.40L153.18,109.38L153.13,109.28L152.78,108.06L152.48,106.51L152.27,104.73L152.14,102.83L152.11,100.92L152.18,99.13L152.35,97.60L152.61,96.32L152.93,95.47L153.31,95.06L153.58,95.10"/><path d="M153.91,73.06L153.90,73.10L153.58,73.52L153.23,73.44L152.88,72.88L152.57,71.88L152.31,70.53L152.14,68.95L152.06,67.28L152.09,65.68L152.23,64.28L152.45,63.20L152.74,62.55L153.08,62.38L153.44,62.70L153.77,63.49L154.06,64.68L154.28,66.15L154.26,66.49L154.28,68.02L154.39,69.54L154.41,69.68L154.34,70.98L154.16,72.23L153.91,73.06L153.65,73.00L153.33,72.48L153.04,71.56L152.80,70.31L152.64,68.86L152.57,67.32L152.60,65.84L152.72,64.54L152.93,63.55L153.20,62.95L153.48,62.81"/><path d="M152.78,121.21L152.95,121.07L153.09,120.67L153.16,120.24L153.19,120.04L153.23,119.26L153.21,118.42L153.13,117.59L153.01,116.89L152.85,116.36L152.67,116.09L152.49,116.09"/><path d="M152.91,117.67L153.00,118.23L153.03,118.77L153.02,119.29L152.99,119.55"/><path d="M153.41,114.51L155.33,114.43L155.33,114.48L155.40,114.76L155.43,114.82L155.49,114.87L155.55,114.82L155.60,114.69L155.63,114.42L156.52,114.38L156.69,114.24L156.83,113.84L156.92,113.21L156.96,112.44L156.94,111.59L156.87,110.77L156.74,110.06L156.58,109.53L156.40,109.26L154.59,109.33L154.72,108.77L154.77,108.42"/><path d="M153.05,112.79L153.00,112.70L152.94,112.52L152.90,112.29L152.88,112.01L152.87,111.73L152.88,111.47L152.91,111.26L152.96,111.13L153.02,111.08L153.08,111.13L153.13,111.26L153.18,111.47L153.22,111.73L153.23,112.01L153.23,112.29L153.21,112.52L153.17,112.70L153.11,112.79L153.05,112.79"/><path d="M152.55,112.49L152.51,111.73L152.52,110.91L152.59,110.20L152.71,109.67L152.86,109.40"/><path d="M153.18,109.38L154.40,109.33L154.37,109.07L154.22,108.45L154.04,108.06L153.86,107.96L153.69,108.14L154.07,107.71L154.06,107.73"/><path d="M152.97,89.35L152.98,89.13L152.96,87.48L152.83,85.82"/><path d="M155.03,75.41L154.66,75.00L154.24,75.01L153.85,75.54L153.51,76.54L153.26,77.95L153.10,79.69L153.05,81.64L153.10,83.68L153.26,85.69L153.52,87.54L153.86,89.11L154.25,90.30L154.68,91.04L155.11,91.28L155.52,91.01L155.65,90.75L155.51,90.83L155.10,90.61L154.70,89.90L154.33,88.78L154.01,87.29L153.76,85.54L153.61,83.64L153.56,81.70L153.61,79.85L153.76,78.21L154.00,76.87L154.31,75.92L154.69,75.42L155.03,75.41L155.10,75.49L155.51,76.47L155.65,77.00L155.55,77.42L155.35,78.93L155.25,80.69L155.25,82.60L155.36,84.53L155.56,86.37L155.84,88.00L156.15,89.17L155.89,90.24L155.65,90.75"/><path d="M154.37,48.01L154.40,48.08L154.55,48.72L154.65,49.53L154.70,50.39L154.68,51.23L154.60,51.94L154.48,52.44L154.31,52.68L152.63,52.75"/><path d="M156.57,118.26L160.55,64.28L160.57,63.65L160.54,62.93L160.63,61.62L160.65,61.02L160.60,60.73L160.70,60.97L160.85,61.46L160.97,62.13L161.05,62.90L161.08,63.71L161.05,64.47L156.99,119.70L156.93,119.11L156.80,118.70L156.57,118.26L156.50,117.46L156.37,116.75L156.21,116.23L156.03,115.95L154.05,116.02"/><path d="M154.40,109.33L154.59,109.33"/><path d="M153.69,108.14L153.55,108.59L153.46,109.27L153.46,109.37"/><path d="M154.26,107.51L154.07,107.71"/><path d="M154.37,107.50L154.68,107.49"/><path d="M154.37,97.31L154.21,96.66"/><path d="M154.41,69.68L154.43,69.46L154.40,67.80L154.28,66.15"/><path d="M154.16,45.57L154.10,45.44L153.93,45.17L153.88,45.17"/><path d="M155.33,114.43L155.63,114.42"/><path d="M156.98,103.36L156.97,103.41L156.65,103.82L156.30,103.74L155.95,103.18L155.63,102.18L155.38,100.83L155.20,99.25L155.13,97.59L155.16,95.98L155.29,94.58L155.43,93.92L155.52,93.50L155.81,92.85L156.15,92.68L156.50,93.00L156.84,93.80L157.13,94.98L157.34,96.45L157.33,96.80L157.35,98.32L157.46,99.84L157.48,99.98L157.41,101.28L157.23,102.53L156.98,103.36L156.72,103.31L156.40,102.78L156.11,101.86L155.87,100.61L155.85,100.47L155.71,99.16L155.64,97.62L155.67,96.14L155.79,94.84L156.00,93.85L156.27,93.25L156.55,93.11"/><path d="M156.47,55.74L156.14,55.75L155.76,56.25L155.45,57.19L155.21,58.53L155.06,60.18L155.01,62.03L155.06,63.97L155.21,65.87L155.46,67.62L155.77,69.10L156.15,70.23L156.55,70.93L156.96,71.16L157.10,71.07L156.97,71.34L156.56,71.61L156.13,71.37L155.70,70.63L155.30,69.44L154.97,67.87L154.71,66.02L154.55,64.01L154.49,61.97L154.55,60.02L154.71,58.28L154.96,56.87L155.29,55.87L155.69,55.34L156.11,55.33L156.55,55.82L156.96,56.79L157.27,57.98"/><path d="M156.52,51.14L160.60,60.73L160.55,60.65L160.40,60.51L160.17,60.44L159.86,60.45L154.91,48.79"/><path d="M156.15,89.17L156.18,89.03L156.26,88.47"/><path d="M155.65,77.00L155.82,77.65"/><path d="M156.23,65.02L156.28,65.00L156.34,65.05L156.35,65.08L156.05,65.09L156.23,65.02"/><path d="M156.05,65.09L155.87,64.87L155.70,64.39L155.56,63.68L155.48,62.85L155.45,61.98L155.49,61.18L155.58,60.52L155.72,60.09L155.90,59.94L156.08,60.08L156.30,60.62L156.36,60.68L156.59,60.58L156.78,60.81L156.94,61.29L157.08,61.99L157.16,62.82L157.19,63.69L157.16,64.50L157.06,65.15L156.92,65.58L156.75,65.73L156.57,65.59L156.35,65.08"/><path d="M155.88,63.47L155.96,63.66L156.04,63.72L156.12,63.66L156.19,63.47L156.23,63.16L156.25,62.82L156.24,62.42L156.21,62.04L156.15,61.70L156.08,61.46L155.99,61.33L155.91,61.33L155.84,61.46L155.78,61.71L155.75,62.04L155.74,62.42L155.77,62.82L155.81,63.18L155.88,63.47"/><path d="M155.90,59.94L156.76,59.91L156.80,59.25L157.00,57.75L157.10,57.33"/><path d="M158.32,120.97L158.47,120.74L158.59,120.28L158.67,119.64L162.74,64.40L162.76,63.64L162.74,62.83L162.66,62.06L162.54,61.40L162.38,60.91L155.78,45.37L155.61,45.10"/><path d="M157.34,96.45L157.47,98.10L157.49,99.76L157.48,99.98"/><path d="M157.30,83.21L157.40,83.51L157.75,84.07L158.10,84.15L158.42,83.73L158.43,83.69L158.17,83.63L157.85,83.11L157.56,82.19L157.32,80.94L157.16,79.49L157.15,79.26L157.09,77.95L157.12,76.47L157.24,75.17L157.45,74.18L157.72,73.58L158.00,73.44L157.95,73.33L157.60,73.01L157.26,73.18L156.96,73.83L156.74,74.90L156.61,76.31L156.58,77.91L156.65,79.58L156.83,81.16L157.08,82.51L157.30,83.21"/><path d="M157.10,71.07L157.34,70.57L157.63,69.35L157.71,68.80"/><path d="M156.75,65.73L156.90,65.73L157.01,66.70L157.29,68.33L157.60,69.50"/><path d="M156.90,65.73L157.23,65.71"/><path d="M156.65,64.00L156.59,63.91L156.53,63.74L156.49,63.50L156.47,63.22L156.46,62.94L156.48,62.68L156.51,62.48L156.55,62.34L156.61,62.29L156.67,62.34L156.73,62.47L156.78,62.68L156.81,62.94L156.83,63.22L156.82,63.50L156.80,63.74L156.76,63.91L156.71,64.00L156.65,64.00"/><path d="M156.59,60.58L159.66,60.46L159.44,59.94L159.26,59.80L157.62,59.87"/><path d="M156.76,59.91L157.09,59.89"/><path d="M158.43,83.69L158.68,82.86L158.86,81.61L158.93,80.30L158.91,80.16L158.79,78.65L158.77,77.12L158.79,76.78L158.58,75.31L158.29,74.12L158.00,73.44"/><path d="M157.95,65.68L160.11,65.60L160.29,65.44L160.43,65.01L160.52,64.36L160.56,63.40L160.54,62.93"/><path d="M158.79,76.78L158.92,78.43L158.94,80.09L158.93,80.30"/><path d="M159.86,60.45L159.66,60.46"/></g><g style="stroke:#000000;stroke-width:0.529"><path d="M153.87,45.15L155.44,45.08L155.61,45.10L156.03,45.51L156.18,45.73L162.78,61.27L162.90,61.68L163.00,62.23L163.07,62.87L163.09,63.55L163.07,64.18L159.55,111.93L159.00,119.41L158.94,119.95L158.84,120.33L158.71,120.52L158.32,120.97L152.78,121.21L152.60,121.07L152.51,120.90L152.43,120.67L152.29,120.05L152.18,119.27L152.14,118.42L152.15,117.60L152.22,116.89L152.34,116.36L152.49,116.09L154.05,116.02L153.41,114.51L153.15,114.52L152.97,114.38L152.88,114.21L152.80,113.98L152.66,113.35L152.55,112.49L149.59,105.53L146.18,105.68L146.00,105.54L145.91,105.37L145.83,105.14L145.69,104.51L145.62,104.01L145.58,103.73L145.54,102.89L145.55,102.06L145.62,101.35L145.74,100.83L145.89,100.55L149.12,100.42L149.20,99.38L146.76,99.48L146.58,99.34L146.49,99.17L146.41,98.93L146.26,98.31L146.16,97.53L146.14,97.08L146.12,96.69L146.13,95.86L146.20,95.15L146.31,94.63L146.47,94.35L149.58,94.23L152.63,52.75L150.95,52.82L150.77,52.77L150.58,52.44L150.43,51.86L150.28,50.86L150.23,50.68L150.00,50.15L149.85,49.51L149.75,48.71L149.71,47.84L149.72,47.00L149.80,46.29L149.93,45.79L150.09,45.55L152.61,45.45"/><path d="M154.44,106.00L154.29,104.75L154.15,102.75L154.12,100.74L154.20,98.85L154.37,97.31L154.47,97.73L154.76,99.46L154.95,101.40L155.05,103.42L155.05,105.40L154.93,107.22L154.90,107.48L154.68,107.49L154.52,106.63L154.44,106.00"/><path d="M156.19,88.16L156.26,88.47L156.39,87.44L156.50,85.58L156.50,83.57L156.39,81.52L156.18,79.58L155.88,77.86L155.82,77.65L155.69,78.68L155.58,80.54L155.58,82.56L155.69,84.60L155.90,86.54L156.19,88.16"/><path d="M157.30,66.37L157.35,66.87L157.65,68.59L157.71,68.80L157.84,67.77L157.95,65.91L157.95,65.68L157.23,65.71L157.30,66.37"/><path d="M157.09,59.89L157.14,59.01L157.27,57.98L157.33,58.19L157.62,59.87L157.09,59.89"/></g></g><g id="Actor_.18"><g style="stroke:#000000;stroke-width:0.176"><path d="M60.94,50.52L61.05,50.43L61.17,50.52L61.29,50.80L61.39,51.24L61.46,51.79L61.48,52.37L61.46,52.93L61.41,53.39L61.38,53.48L61.31,53.69L61.20,53.82L61.08,53.74"/><path d="M62.08,54.64L62.25,54.46L62.39,53.99L62.48,53.30L62.50,52.47L62.47,51.59L62.37,50.76L62.22,50.10L62.04,49.67L61.86,49.53"/></g><g style="stroke:#000000;stroke-width:0.529"><path d="M68.80,54.37L62.08,54.64L61.89,54.52L61.08,53.74L60.96,53.46L60.86,53.03L60.80,52.54L60.94,50.52L61.86,49.53L66.82,49.33L68.59,49.28"/></g></g><g id="Actor_.19"><g style="stroke:#000000;stroke-width:0.176"><path d="M60.51,91.67L60.51,91.82L60.52,91.13"/><path d="M60.51,91.82L60.50,91.85"/><path d="M60.53,90.16L60.53,90.28"/><path d="M60.56,88.16L60.53,88.91L60.55,88.32"/><path d="M60.53,88.91L60.53,88.94"/><path d="M64.24,97.33L64.27,97.08L64.10,98.13L64.05,98.57L63.99,99.98L64.01,101.51L64.16,103.46L64.29,104.49L64.60,106.51"/><path d="M64.30,98.40L64.50,97.84L64.75,97.30"/><path d="M64.28,97.02L64.27,97.08"/><path d="M65.34,109.09L65.29,108.96L65.47,109.46L65.34,109.09"/><path d="M65.29,108.96L65.17,108.68L65.29,108.96"/><path d="M64.77,107.25L64.87,107.69"/><path d="M66.42,43.14L66.28,43.05L66.09,43.00L65.82,43.01L65.51,43.08L65.16,43.22L64.92,43.35"/><path d="M65.23,43.19L65.53,43.00"/><path d="M65.14,43.23L65.07,43.27L65.19,43.20"/><path d="M65.82,110.84L65.81,110.81L65.82,110.84"/><path d="M65.52,109.14L65.54,108.81"/><path d="M65.52,104.95L65.52,106.25"/><path d="M65.55,42.99L65.38,43.13L65.76,42.83"/><path d="M65.60,42.96L66.33,42.40L66.24,42.49"/><path d="M65.50,43.02L65.48,43.04"/><path d="M66.38,113.09L66.72,114.49L67.01,115.37L67.42,116.27L67.73,116.75"/><path d="M67.47,113.33L67.41,113.45L67.33,113.45L67.25,113.33L67.17,113.05"/><path d="M66.94,41.79L67.01,41.61L67.04,41.60L66.98,41.70L67.03,41.57"/><path d="M67.14,41.33L66.96,41.78"/><path d="M67.08,41.49L67.04,41.60L67.02,41.58L67.31,40.91L67.22,41.17"/><path d="M66.34,42.38L66.33,42.40"/><path d="M67.26,41.09L67.05,41.55"/><path d="M67.40,40.68L67.30,41.16"/><path d="M67.69,117.77L67.78,117.91"/><path d="M67.35,40.91L67.35,40.93L67.36,40.85"/><path d="M67.33,40.97L67.35,40.93"/><path d="M68.26,39.36L68.22,39.38L68.31,39.34"/><path d="M71.11,38.80L72.21,38.65L71.28,38.77"/><path d="M71.66,38.95L71.49,39.14L71.34,39.49L71.30,39.89L71.39,40.33L83.50,68.84L83.71,69.10L84.00,69.32L84.35,69.50L84.70,69.62"/><path d="M84.76,69.34L84.45,69.11L84.16,68.80L83.95,68.44L71.83,39.93L71.77,39.75L71.73,39.40L71.80,39.12L71.96,38.89"/><path d="M77.45,127.77L77.47,127.78L77.37,127.63L77.28,127.58L77.11,127.55L76.92,127.59"/><path d="M77.15,127.55L77.28,127.64"/><path d="M77.05,127.57L77.19,127.62"/><path d="M77.28,127.58L77.42,127.73"/><path d="M81.02,143.74L81.12,142.98L81.09,143.11"/><path d="M81.12,142.98L81.29,141.08L81.38,138.76"/><path d="M82.10,148.59L82.01,148.37"/><path d="M81.68,148.04L81.77,148.16"/><path d="M86.46,45.14L85.35,45.42L84.55,45.87L84.15,46.44L84.19,47.07L85.64,50.47"/><path d="M84.60,48.02L85.18,47.69L85.85,47.52"/><path d="M85.97,134.39L85.80,134.88L85.71,135.08L85.89,134.34L86.01,133.34L88.18,103.83L88.22,102.81L88.21,101.73L88.14,100.67L87.85,98.16L87.20,93.79L86.89,91.96L86.65,90.74"/><path d="M85.71,135.08L85.52,135.52"/><path d="M85.86,134.72L85.94,134.47"/><path d="M90.04,80.13L88.62,71.62L97.03,71.28"/><path d="M89.04,74.15L90.62,74.08"/><path d="M88.84,72.95L95.88,72.66"/><path d="M93.59,74.50L93.88,74.17L93.96,73.95L93.10,73.98"/><path d="M107.47,183.58L105.95,179.54L103.79,173.92L103.03,171.81L102.36,169.63L101.78,167.42L101.30,165.17L100.91,162.89L100.62,160.57L100.49,159.08L100.35,156.71L100.31,154.32L100.36,151.91L100.81,142.65L101.14,133.73"/><path d="M102.57,99.47L101.59,99.51L101.59,107.40L101.57,112.04L101.45,121.15L101.30,128.05"/><path d="M101.59,99.51L101.58,98.99"/><path d="M107.80,185.02L107.91,185.03"/></g><g style="stroke:#000000;stroke-width:0.529"><path d="M64.55,111.68L63.93,110.17L63.39,108.67L62.78,106.95L62.32,105.38L61.89,103.81L61.54,102.26L61.02,99.22L60.70,96.24L60.60,94.77L60.50,91.82L60.52,88.91L60.64,85.91"/><path d="M60.53,90.24L60.53,90.12"/><path d="M65.49,43.02L65.53,43.00L64.83,43.40L64.53,43.63L64.28,43.93"/><path d="M65.16,113.12L65.31,113.48L66.09,115.11L66.98,116.68L67.78,117.92"/><path d="M64.92,112.55L64.80,112.28"/><path d="M65.53,43.00L66.33,42.38L67.03,41.57L67.32,40.89L67.31,40.91"/><path d="M67.32,40.89L67.60,40.05L67.86,39.68L68.20,39.39L68.64,39.17L69.05,39.07L72.53,38.60L83.46,38.16L83.51,38.21L86.46,45.14L86.29,47.41L85.85,47.52L85.64,50.47L89.40,59.33L89.89,59.94L90.75,60.46L91.90,60.83L93.20,61.01L96.66,69.17L96.70,69.32L97.03,71.28L96.62,72.63L95.88,72.66L95.79,73.33L95.56,74.10L95.28,74.43L93.59,74.50L93.29,74.36L93.10,73.98L90.62,74.08"/><path d="M67.39,40.71L67.34,40.85"/><path d="M77.33,127.66L77.19,127.62L76.92,127.60L76.65,127.54L76.38,127.10L76.07,126.37"/><path d="M77.04,127.60L77.19,127.62"/><path d="M79.34,129.91L78.69,129.39L78.25,128.95L77.82,128.43L77.50,127.87"/><path d="M77.28,127.64L77.47,127.79L77.54,127.97"/><path d="M87.82,166.45L88.11,167.15L86.79,163.89L85.40,160.17L84.37,157.09L83.92,155.59L82.98,152.15L82.27,149.04L82.10,148.59L81.42,147.75L81.22,147.25L81.13,146.82L81.08,146.10L81.09,146.20"/><path d="M81.08,146.10L80.99,144.12L81.09,143.11L81.18,141.67L81.23,140.13L81.23,138.54L81.18,136.92L81.07,135.31L80.90,133.59"/><path d="M88.11,167.15L89.55,170.43L90.69,172.67L91.57,174.24L92.93,176.35L94.43,178.30L96.06,180.06L96.69,180.63L97.80,181.58L98.46,182.06L99.61,182.83L100.30,183.22L101.47,183.79L102.18,184.08L103.34,184.47L104.07,184.66L105.21,184.88L105.95,184.96L107.06,185.04L107.96,185.03L107.80,184.50L107.47,183.58L108.61,183.11L108.32,182.26L107.44,179.89L104.83,173.07L104.18,171.32L102.99,167.36L102.11,163.26L101.56,159.08L101.31,154.86L101.38,150.57L101.67,145.04L101.86,140.57L101.93,138.95L101.94,137.85L101.87,136.70L101.74,135.61L101.55,134.72L101.32,134.07L101.14,133.73L101.30,128.05L101.77,128.03L101.99,127.73L102.15,127.23L102.27,126.48L102.34,125.58L102.46,119.01L102.53,114.05L102.57,108.93L102.57,99.47L102.30,98.97L101.59,98.99L101.56,98.48L101.49,97.94L101.20,96.19L99.95,95.92L98.78,95.41L97.58,94.64L96.96,94.15L95.62,92.84L94.09,90.95L92.81,88.94L91.59,86.51L90.77,84.23L90.67,83.89L90.04,80.13"/></g></g><g id="Actor_.20"><g style="stroke:#000000;stroke-width:0.176"><path d="M181.39,139.90L183.05,139.84L183.35,140.07L183.50,140.35L183.64,140.74L183.88,141.78L184.05,143.08L184.13,144.49L184.11,145.86L183.99,147.05L183.79,147.92L183.53,148.38L182.96,148.41"/><path d="M182.81,130.58L182.73,130.65L182.64,130.58L182.55,130.38L182.48,130.07L182.43,129.68L182.40,129.26L182.41,128.85L182.44,128.49L182.50,128.23L182.58,128.09L182.67,128.09L182.76,128.23L182.84,128.49L182.90,128.85L182.94,129.24L182.95,129.68L182.93,130.07L182.88,130.38L182.81,130.58"/><path d="M182.44,126.76L182.50,126.77L182.55,126.86L185.85,134.63L185.91,134.79L185.95,135.01L185.97,135.27L185.98,135.54L185.97,135.79L184.79,151.83L184.77,152.05L184.72,152.20L184.67,152.28"/><path d="M185.66,136.92L185.59,137.12L185.50,137.20L185.41,137.13L185.33,136.92L185.26,136.61L185.21,136.22L185.18,135.80L185.18,135.71L185.19,135.39L185.22,135.03L185.28,134.77L185.36,134.63L185.45,134.63L185.54,134.77L185.62,135.03L185.68,135.39L185.72,135.80L185.73,136.22L185.71,136.61L185.66,136.92"/><path d="M185.45,134.63L185.36,134.63"/></g><g style="stroke:#000000;stroke-width:0.529"><path d="M186.39,148.32L187.32,135.74L187.33,135.48L187.32,135.21L187.29,134.96L187.25,134.74L187.20,134.57L183.90,126.80L183.84,126.72L183.79,126.71L182.44,126.76L182.39,126.84L182.35,126.99L182.32,127.21L181.39,139.90L181.13,139.91L180.87,139.97L180.66,140.08L180.44,140.21L180.27,140.40L180.09,140.73L180.00,140.95L179.87,141.44L179.77,142.11L179.71,142.89L179.70,143.76L179.73,144.62L179.81,145.52L179.92,146.32L180.07,146.99L180.24,147.51L180.35,147.71L180.55,148.06L180.73,148.24L180.94,148.37L181.18,148.48L181.44,148.51L182.96,148.41L184.56,152.18L184.62,152.27L184.67,152.28L186.02,152.22L186.07,152.14L186.11,151.99L186.14,151.78L186.18,151.24"/></g></g><g id="Actor_.21"><g style="stroke:#000000;stroke-width:0.176"><path d="M35.81,55.59L36.25,55.57L36.26,55.53L36.21,54.32L35.76,54.34L35.81,55.59L36.07,56.19L36.25,55.57"/><path d="M35.76,54.34L35.95,53.68L36.21,54.28L36.21,54.32"/><path d="M38.99,56.11L39.02,55.78L39.03,55.03L38.99,54.25L38.90,53.54"/><path d="M51.79,53.07L51.88,53.28L51.95,53.59L52.00,53.98L52.03,54.40L52.02,54.81L51.99,55.17L51.93,55.43L51.85,55.57"/></g><g style="stroke:#000000;stroke-width:0.529"><path d="M42.12,53.41L38.90,53.54L38.76,52.97L38.61,52.60L38.44,52.47L36.17,52.56L36.09,52.58L36.02,52.62L35.87,52.74L35.82,52.80L35.79,52.87L35.67,53.21L35.59,53.74L35.56,54.40L35.57,55.12L35.64,55.81L35.74,56.42L35.88,56.86L35.91,56.92L36.07,57.16L36.12,57.22L36.19,57.25L36.27,57.26L36.43,57.26L38.71,57.17L38.85,56.91L38.96,56.43L38.99,56.11L51.85,55.57L52.07,55.32L52.13,55.21L52.18,54.99L52.21,54.70L52.21,54.37L52.19,54.03L52.15,53.71L52.09,53.46L52.02,53.29L51.79,53.07L51.70,53.00L42.81,53.38"/></g></g><g id="Actor_.22"><g style="stroke:#000000;stroke-width:0.176"><path d="M207.29,108.25L207.37,108.31L207.44,108.47L207.50,108.73L207.54,109.06L207.56,109.41L207.56,109.75L207.53,110.05L207.48,110.27L207.41,110.38"/><path d="M207.12,110.18L207.18,110.18L207.23,110.08L207.27,109.91L207.30,109.67L207.30,109.40L207.28,109.12L207.25,108.86L207.20,108.65L207.15,108.52L207.09,108.47L207.03,108.52"/><path d="M217.35,110.83L217.47,110.62L217.56,110.23L217.61,109.70L217.62,109.08L217.59,108.44L217.51,107.86L217.40,107.39L217.27,107.09L217.14,106.98"/><path d="M217.22,110.01L217.20,110.00L217.17,110.00L216.93,110.01"/><path d="M216.83,107.87L217.05,107.86L217.08,107.86L217.10,107.84L217.12,107.83"/></g><g style="stroke:#000000;stroke-width:0.529"><path d="M219.65,109.80L219.63,110.04L219.54,110.40L219.52,110.46L219.41,110.66L219.37,110.71L219.31,110.74L219.25,110.75L217.35,110.83L217.22,110.83L217.09,110.62L216.97,110.23L216.93,110.01L207.41,110.38L207.34,110.38L207.12,110.18L207.06,110.09L207.01,109.91L206.97,109.68L206.94,109.40L206.94,109.12L206.95,108.86L206.98,108.66L207.03,108.52L207.22,108.31L207.29,108.25L216.83,107.87L216.91,107.39L217.01,107.09L217.14,106.98L219.03,106.91L219.10,106.92L219.16,106.94L219.29,107.05L219.33,107.09L219.36,107.14L219.48,107.42L219.58,107.86L219.65,108.39L219.66,108.60"/></g></g><g id="Actor_.23"><g style="stroke:#000000;stroke-width:0.176"><path d="M41.02,67.86L41.28,68.45L41.46,67.84L41.02,67.86L40.97,66.60L41.16,65.95L41.42,66.54L41.42,66.59L40.97,66.60"/><path d="M41.46,67.84L41.47,67.79L41.42,66.59"/><path d="M44.20,68.37L44.23,68.05L44.24,67.29L44.20,66.51L44.11,65.81"/><path d="M57.01,65.34L57.09,65.54L57.16,65.85L57.21,66.24L57.24,66.66L57.23,67.07L57.20,67.43L57.14,67.69L57.06,67.83"/></g><g style="stroke:#000000;stroke-width:0.529"><path d="M41.58,69.52L41.48,69.52L41.40,69.51L41.33,69.48L41.28,69.43L41.12,69.18L41.09,69.12L40.96,68.68L40.90,68.35L40.85,68.08L40.79,67.38L40.77,66.66L40.80,66.00L40.89,65.47L41.00,65.13L41.03,65.06L41.08,65.01L41.23,64.88L41.30,64.84L41.38,64.82L43.65,64.73L43.82,64.86L43.97,65.23L44.11,65.81L56.92,65.27L57.01,65.34L57.23,65.56L57.30,65.72L57.36,65.97L57.40,66.29L57.42,66.63L57.42,66.97L57.39,67.26L57.34,67.47L57.28,67.58L57.06,67.83L44.20,68.37L44.17,68.70L44.06,69.18L43.92,69.43L41.64,69.52L41.58,69.52"/></g></g><g id="Actor_.24"><g style="stroke:#000000;stroke-width:0.176"><path d="M200.82,95.54L200.88,95.53L200.94,95.44L200.98,95.27L201.00,95.03L201.00,94.76L200.99,94.48L200.95,94.22L200.90,94.01L200.85,93.88L200.79,93.83L200.73,93.88"/><path d="M201.11,95.74L201.18,95.63L201.23,95.41L201.26,95.11L201.26,94.77L201.24,94.42L201.20,94.09L201.14,93.83L201.07,93.66L200.99,93.61"/><path d="M210.92,95.37L210.90,95.36L210.87,95.36L210.63,95.37"/><path d="M210.54,93.23L210.75,93.22L210.78,93.22L210.80,93.20L210.82,93.18"/><path d="M211.06,96.19L211.17,95.98L211.26,95.59L211.31,95.05L211.32,94.44L211.30,94.10L211.29,93.80L211.21,93.22L211.10,92.75L210.97,92.45L210.84,92.34"/></g><g style="stroke:#000000;stroke-width:0.529"><path d="M200.71,95.27L200.77,95.44L200.82,95.54L201.04,95.74L201.11,95.74L210.63,95.37L210.67,95.59L210.79,95.98L210.92,96.19L211.06,96.19L212.95,96.11L213.01,96.10L213.07,96.06L213.11,96.02L213.22,95.82L213.25,95.76L213.33,95.40L213.38,94.91L213.38,94.34L213.35,93.75L213.28,93.21L213.18,92.78L213.06,92.50L213.03,92.45L212.99,92.40L212.86,92.30L212.80,92.27L212.73,92.27L210.84,92.34L210.71,92.45L210.61,92.75L210.54,93.23L200.99,93.61L200.92,93.66L200.73,93.88L200.68,94.01L200.65,94.22L200.64,94.48L200.65,94.76L200.67,95.03L200.71,95.27"/></g></g><g id="Actor_.25"><g style="stroke:#000000;stroke-width:0.176"><path d="M206.24,91.89L206.32,91.95L206.39,92.12L206.45,92.38L206.49,92.70L206.51,93.05L206.51,93.39"/><path d="M205.98,92.16L206.04,92.12L206.10,92.16L206.16,92.30L206.21,92.50L206.24,92.76L206.25,93.04L206.25,93.32L206.24,93.40"/><path d="M209.36,90.90L209.50,91.01L209.63,91.31L209.73,91.78L209.81,92.36L209.85,93.00L209.84,93.26"/><path d="M209.34,91.74L209.32,91.76L209.30,91.77L209.28,91.78L209.06,91.79"/></g><g style="stroke:#000000;stroke-width:0.529"><path d="M205.94,93.41L205.92,93.32L205.90,93.05L205.89,92.76L205.91,92.51L205.94,92.30L205.98,92.16L206.17,91.95L206.24,91.89L209.06,91.79L209.06,91.78L209.13,91.31L209.24,91.01L209.36,90.90L211.26,90.82L211.32,90.83L211.38,90.86L211.51,90.96L211.56,91.01L211.59,91.06L211.70,91.34L211.80,91.77L211.87,92.30"/></g></g><g id="Actor_.26"><g style="stroke:#000000;stroke-width:0.176"><path d="M37.70,123.82L37.71,123.97L38.14,123.95L38.16,123.91L38.10,122.70L37.65,122.72L37.70,123.82"/><path d="M37.71,123.97L37.96,124.56L38.14,123.95"/><path d="M37.65,122.72L37.85,122.06L38.10,122.66L38.10,122.70"/><path d="M40.79,121.92L40.88,122.63L40.93,123.40L40.92,124.16L40.88,124.48"/><path d="M53.74,123.94L53.82,123.80L53.88,123.54L53.92,123.19L53.92,122.78L53.90,122.35L53.85,121.96L53.77,121.65L53.69,121.45"/></g><g style="stroke:#000000;stroke-width:0.529"><path d="M37.50,123.82L37.53,124.19L37.64,124.79L37.77,125.24L37.80,125.30L37.96,125.54L38.02,125.59L38.09,125.63L38.17,125.63L38.33,125.63L40.60,125.54L40.74,125.29L40.85,124.81L40.88,124.48L53.74,123.94L53.96,123.69L54.02,123.58L54.07,123.37L54.10,123.08L54.10,122.83L54.11,122.75L54.09,122.40L54.05,122.09L53.99,121.84L53.92,121.67L53.69,121.45L53.60,121.38L40.79,121.92L40.66,121.34L40.50,120.97L40.33,120.84L38.06,120.94L37.99,120.95L37.92,120.99L37.76,121.12L37.71,121.17L37.69,121.24L37.57,121.59L37.49,122.12L37.45,122.78L37.47,123.49L37.50,123.82"/></g></g><g id="Actor_.27"><g style="stroke:#000000;stroke-width:0.176"><path d="M161.37,97.42L161.33,97.28L161.26,96.88L161.21,96.41L161.20,95.93L161.23,95.49L161.28,95.14L161.36,94.91L161.46,94.83L161.56,94.91L161.61,95.01L161.61,95.01L161.55,95.07L161.48,95.27L161.43,95.58L161.41,95.97L161.42,96.39L161.44,96.60L161.46,96.80L161.52,97.16L161.60,97.42L161.69,97.56L161.71,97.56L161.71,97.58L161.62,97.73L161.52,97.73L161.42,97.58L161.37,97.42"/><path d="M161.34,93.92L161.50,93.92L161.67,94.17L161.82,94.66L161.94,95.32L162.01,96.09L162.02,96.88L162.00,97.24L161.99,97.61L161.90,98.19L161.77,98.57L161.61,98.70L161.44,98.57"/><path d="M161.49,93.74L161.67,93.74L161.85,94.02L162.01,94.54L162.13,95.25L162.21,96.07L162.23,96.92L162.21,97.19L162.19,97.69L162.09,98.32L161.95,98.72L161.78,98.87"/><path d="M161.71,97.56L161.78,97.28L161.82,96.88L161.82,96.41L161.79,95.93L161.74,95.49L161.66,95.14L161.61,95.01"/><path d="M163.95,93.76L164.12,94.16L164.26,94.78L164.37,95.56L164.41,96.41L164.40,97.23L164.33,97.94L164.21,98.46L164.06,98.74"/></g><g style="stroke:#000000;stroke-width:0.529"><path d="M161.37,98.41L161.28,98.19L161.14,97.61L161.05,96.88L161.01,96.10L161.02,95.33L161.08,94.66L161.19,94.18L161.34,93.92L161.49,93.74L163.77,93.62L163.95,93.76L164.11,93.91L164.27,94.29L164.41,94.87L164.50,95.60L164.54,96.39L164.53,97.16L164.47,97.82L164.36,98.31L164.21,98.56L164.06,98.74L161.78,98.87L161.60,98.73L161.44,98.57L161.37,98.41"/></g></g><g><g><path style="stroke:#000000;stroke-width:0.088;stroke-opacity:0.50;fill:#ff0000;fill-opacity:0.502" d="M240.86,90.78L240.70,88.69L232.70,93.53L241.36,97.02L241.20,94.94L257.98,93.60L257.65,89.43z"/></g></g><g><g><path style="stroke:#000000;stroke-width:0.088" d="M156.18,159.12L159.28,159.12L175.10,107.44"/></g><g><path style="fill:#000000" d="M176.10,107.44L176.10,107.34L176.08,107.24L176.06,107.15L176.03,107.05L175.99,106.97L175.93,106.88L175.88,106.80L175.81,106.73L175.74,106.66L175.66,106.61L175.57,106.55L175.49,106.51L175.39,106.48L175.30,106.46L175.20,106.44L175.10,106.44L175.01,106.44L174.91,106.46L174.81,106.48L174.72,106.51L174.63,106.55L174.55,106.61L174.47,106.66L174.40,106.73L174.33,106.80L174.27,106.88L174.22,106.97L174.18,107.05L174.15,107.15L174.12,107.24L174.11,107.34L174.10,107.44L174.11,107.53L174.12,107.63L174.15,107.73L174.18,107.82L174.22,107.91L174.27,107.99L174.33,108.07L174.40,108.14L174.47,108.21L174.55,108.27L174.63,108.32L174.72,108.36L174.81,108.39L174.91,108.42L175.01,108.43L175.10,108.44L175.20,108.43L175.30,108.42L175.39,108.39L175.49,108.36L175.57,108.32L175.66,108.27L175.74,108.21L175.81,108.14L175.88,108.07L175.93,107.99L175.99,107.91L176.03,107.82L176.06,107.73L176.08,107.63L176.10,107.53z"/></g><g><path style="fill:#ffffa0" d="M142.64,162.23L156.18,162.23L156.18,156.02L142.64,156.02z"/><path style="stroke:#000000;stroke-width:0.088;stroke-opacity:0.98" d="M142.64,162.23L156.18,162.23L156.18,156.02L142.64,156.02z"/><text xml:space="preserve" fill="#000000" stroke-width="0" x="143.42" y="160.48" font-size="3.41" opacity="1.00" font-family="MS Shell Dlg">Beeper</text></g></g><g><g><path style="stroke:#000000;stroke-width:0.088" d="M234.12,109.45L231.02,109.45L218.68,109.18"/></g><g><path style="fill:#000000" d="M219.68,109.18L219.67,109.08L219.66,108.98L219.63,108.89L219.60,108.79L219.56,108.71L219.51,108.62L219.45,108.54L219.38,108.47L219.31,108.40L219.23,108.35L219.15,108.29L219.06,108.25L218.97,108.22L218.87,108.20L218.77,108.18L218.68,108.18L218.58,108.18L218.48,108.20L218.39,108.22L218.29,108.25L218.21,108.29L218.12,108.35L218.04,108.40L217.97,108.47L217.90,108.54L217.84,108.62L217.79,108.71L217.75,108.79L217.72,108.89L217.70,108.98L217.68,109.08L217.68,109.18L217.68,109.27L217.70,109.37L217.72,109.47L217.75,109.56L217.79,109.65L217.84,109.73L217.90,109.81L217.97,109.88L218.04,109.95L218.12,110.01L218.21,110.06L218.29,110.10L218.39,110.13L218.48,110.16L218.58,110.17L218.68,110.18L218.77,110.17L218.87,110.16L218.97,110.13L219.06,110.10L219.15,110.06L219.23,110.01L219.31,109.95L219.38,109.88L219.45,109.81L219.51,109.73L219.56,109.65L219.60,109.56L219.63,109.47L219.66,109.37L219.67,109.27z"/></g><g><path style="fill:#ffffa0" d="M234.12,112.55L259.03,112.55L259.03,106.34L234.12,106.34z"/><path style="stroke:#000000;stroke-width:0.088;stroke-opacity:0.98" d="M234.12,112.55L259.03,112.55L259.03,106.34L234.12,106.34z"/><text xml:space="preserve" fill="#000000" stroke-width="0" x="234.90" y="110.81" font-size="3.41" opacity="1.00" font-family="MS Shell Dlg">M2.5x12 2pcs</text></g></g><g><g><path style="stroke:#000000;stroke-width:0.088" d="M149.05,144.59L152.16,144.59L170.05,112.19"/></g><g><path style="fill:#000000" d="M171.05,112.19L171.04,112.09L171.03,112.00L171.00,111.90L170.97,111.81L170.93,111.72L170.88,111.64L170.82,111.56L170.75,111.49L170.68,111.42L170.60,111.36L170.52,111.31L170.43,111.27L170.34,111.24L170.24,111.21L170.15,111.20L170.05,111.19L169.95,111.20L169.85,111.21L169.76,111.24L169.66,111.27L169.58,111.31L169.49,111.36L169.41,111.42L169.34,111.49L169.27,111.56L169.22,111.64L169.17,111.72L169.12,111.81L169.09,111.90L169.07,112.00L169.05,112.09L169.05,112.19L169.05,112.29L169.07,112.39L169.09,112.48L169.12,112.57L169.17,112.66L169.22,112.75L169.27,112.83L169.34,112.90L169.41,112.97L169.49,113.02L169.58,113.07L169.66,113.12L169.76,113.15L169.85,113.17L169.95,113.19L170.05,113.19L170.15,113.19L170.24,113.17L170.34,113.15L170.43,113.12L170.52,113.07L170.60,113.02L170.68,112.97L170.75,112.90L170.82,112.83L170.88,112.75L170.93,112.66L170.97,112.57L171.00,112.48L171.03,112.39L171.04,112.29z"/></g><g><path style="fill:#ffffa0" d="M122.28,147.70L149.05,147.70L149.05,141.49L122.28,141.49z"/><path style="stroke:#000000;stroke-width:0.088;stroke-opacity:0.98" d="M122.28,147.70L149.05,147.70L149.05,141.49L122.28,141.49z"/><text xml:space="preserve" fill="#000000" stroke-width="0" x="123.06" y="145.95" font-size="3.41" opacity="1.00" font-family="MS Shell Dlg">PCB dest bone</text></g></g><g><g><path style="stroke:#000000;stroke-width:0.088" d="M139.81,25.77L157.27,51.16"/></g><g><path style="fill:#000000" d="M158.27,51.16L158.26,51.06L158.25,50.96L158.22,50.87L158.19,50.78L158.15,50.69L158.10,50.60L158.04,50.52L157.97,50.45L157.90,50.39L157.82,50.33L157.74,50.28L157.65,50.23L157.56,50.20L157.46,50.18L157.37,50.16L157.27,50.16L157.17,50.16L157.07,50.18L156.98,50.20L156.88,50.23L156.80,50.28L156.71,50.33L156.63,50.39L156.56,50.45L156.49,50.52L156.44,50.60L156.39,50.69L156.34,50.78L156.31,50.87L156.29,50.96L156.27,51.06L156.27,51.16L156.27,51.26L156.29,51.35L156.31,51.45L156.34,51.54L156.39,51.63L156.44,51.71L156.49,51.79L156.56,51.87L156.63,51.93L156.71,51.99L156.80,52.04L156.88,52.08L156.98,52.12L157.07,52.14L157.17,52.15L157.27,52.16L157.37,52.15L157.46,52.14L157.56,52.12L157.65,52.08L157.74,52.04L157.82,51.99L157.90,51.93L157.97,51.87L158.04,51.79L158.10,51.71L158.15,51.63L158.19,51.54L158.22,51.45L158.25,51.35L158.26,51.26z"/></g><g><path style="fill:#ffffa0" d="M124.63,25.77L154.98,25.77L154.98,19.56L124.63,19.56z"/><path style="stroke:#000000;stroke-width:0.088;stroke-opacity:0.98" d="M124.63,25.77L154.98,25.77L154.98,19.56L124.63,19.56z"/><text xml:space="preserve" fill="#000000" stroke-width="0" x="125.40" y="24.02" font-size="3.41" opacity="1.00" font-family="MS Shell Dlg">MCU PCB mount</text></g></g><g><g><path style="stroke:#000000;stroke-width:0.088" d="M176.13,26.92L179.23,26.92L186.64,58.26"/></g><g><path style="fill:#000000" d="M187.64,58.26L187.63,58.16L187.62,58.07L187.60,57.97L187.56,57.88L187.52,57.79L187.47,57.71L187.41,57.63L187.35,57.56L187.27,57.49L187.19,57.43L187.11,57.38L187.02,57.34L186.93,57.31L186.83,57.28L186.74,57.27L186.64,57.26L186.54,57.27L186.44,57.28L186.35,57.31L186.26,57.34L186.17,57.38L186.08,57.43L186.00,57.49L185.93,57.56L185.87,57.63L185.81,57.71L185.76,57.79L185.72,57.88L185.68,57.97L185.66,58.07L185.64,58.16L185.64,58.26L185.64,58.36L185.66,58.46L185.68,58.55L185.72,58.65L185.76,58.73L185.81,58.82L185.87,58.90L185.93,58.97L186.00,59.04L186.08,59.09L186.17,59.14L186.26,59.19L186.35,59.22L186.44,59.24L186.54,59.26L186.64,59.26L186.74,59.26L186.83,59.24L186.93,59.22L187.02,59.19L187.11,59.14L187.19,59.09L187.27,59.04L187.35,58.97L187.41,58.90L187.47,58.82L187.52,58.73L187.56,58.65L187.60,58.55L187.62,58.46L187.63,58.36z"/></g><g><path style="fill:#ffffa0" d="M157.37,30.03L176.13,30.03L176.13,23.82L157.37,23.82z"/><path style="stroke:#000000;stroke-width:0.088;stroke-opacity:0.98" d="M157.37,30.03L176.13,30.03L176.13,23.82L157.37,23.82z"/><text xml:space="preserve" fill="#000000" stroke-width="0" x="158.15" y="28.28" font-size="3.41" opacity="1.00" font-family="MS Shell Dlg">MCU PCB</text></g></g><g><g><path style="stroke:#000000;stroke-width:0.088" d="M243.54,160.24L240.43,160.24L221.20,136.04"/></g><g><path style="fill:#000000" d="M222.20,136.04L222.20,135.94L222.18,135.84L222.16,135.75L222.13,135.66L222.09,135.57L222.03,135.48L221.98,135.40L221.91,135.33L221.84,135.27L221.76,135.21L221.67,135.16L221.59,135.12L221.49,135.08L221.40,135.06L221.30,135.04L221.20,135.04L221.11,135.04L221.01,135.06L220.91,135.08L220.82,135.12L220.73,135.16L220.65,135.21L220.57,135.27L220.50,135.33L220.43,135.40L220.37,135.48L220.32,135.57L220.28,135.66L220.25,135.75L220.22,135.84L220.21,135.94L220.20,136.04L220.21,136.14L220.22,136.23L220.25,136.33L220.28,136.42L220.32,136.51L220.37,136.59L220.43,136.67L220.50,136.75L220.57,136.81L220.65,136.87L220.73,136.92L220.82,136.96L220.91,137.00L221.01,137.02L221.11,137.03L221.20,137.04L221.30,137.03L221.40,137.02L221.49,137.00L221.59,136.96L221.67,136.92L221.76,136.87L221.84,136.81L221.91,136.75L221.98,136.67L222.03,136.59L222.09,136.51L222.13,136.42L222.16,136.33L222.18,136.23L222.20,136.14z"/></g><g><path style="fill:#ffffa0" d="M243.54,163.35L268.45,163.35L268.45,157.14L243.54,157.14z"/><path style="stroke:#000000;stroke-width:0.088;stroke-opacity:0.98" d="M243.54,163.35L268.45,163.35L268.45,157.14L243.54,157.14z"/><text xml:space="preserve" fill="#000000" stroke-width="0" x="244.31" y="161.60" font-size="3.41" opacity="1.00" font-family="MS Shell Dlg">M2.5x12 4pcs</text></g></g><g><g><path style="stroke:#000000;stroke-width:0.088" d="M65.32,25.38L62.21,25.38L42.07,53.37"/></g><g><path style="fill:#000000" d="M43.07,53.37L43.07,53.27L43.05,53.18L43.03,53.08L43.00,52.99L42.95,52.90L42.90,52.81L42.85,52.74L42.78,52.66L42.71,52.60L42.63,52.54L42.54,52.49L42.46,52.45L42.36,52.41L42.27,52.39L42.17,52.38L42.07,52.37L41.97,52.38L41.88,52.39L41.78,52.41L41.69,52.45L41.60,52.49L41.52,52.54L41.44,52.60L41.37,52.66L41.30,52.74L41.24,52.81L41.19,52.90L41.15,52.99L41.12,53.08L41.09,53.18L41.08,53.27L41.07,53.37L41.08,53.47L41.09,53.57L41.12,53.66L41.15,53.75L41.19,53.84L41.24,53.93L41.30,54.00L41.37,54.08L41.44,54.14L41.52,54.20L41.60,54.25L41.69,54.29L41.78,54.33L41.88,54.35L41.97,54.37L42.07,54.37L42.17,54.37L42.27,54.35L42.36,54.33L42.46,54.29L42.54,54.25L42.63,54.20L42.71,54.14L42.78,54.08L42.85,54.00L42.90,53.93L42.95,53.84L43.00,53.75L43.03,53.66L43.05,53.57L43.07,53.47z"/></g><g><path style="fill:#ffffa0" d="M65.32,28.49L87.05,28.49L87.05,22.28L65.32,22.28z"/><path style="stroke:#000000;stroke-width:0.088;stroke-opacity:0.98" d="M65.32,28.49L87.05,28.49L87.05,22.28L65.32,22.28z"/><text xml:space="preserve" fill="#000000" stroke-width="0" x="66.09" y="26.74" font-size="3.41" opacity="1.00" font-family="MS Shell Dlg">M3x12 4pcs</text></g></g><g><g><path style="stroke:#000000;stroke-width:0.088" d="M194.65,169.71L191.55,169.71L186.07,148.40"/></g><g><path style="fill:#000000" d="M187.07,148.40L187.06,148.30L187.05,148.20L187.02,148.11L186.99,148.02L186.95,147.93L186.90,147.84L186.84,147.76L186.77,147.69L186.70,147.63L186.62,147.57L186.54,147.52L186.45,147.47L186.36,147.44L186.26,147.42L186.17,147.40L186.07,147.40L185.97,147.40L185.87,147.42L185.78,147.44L185.68,147.47L185.60,147.52L185.51,147.57L185.43,147.63L185.36,147.69L185.29,147.76L185.24,147.84L185.19,147.93L185.14,148.02L185.11,148.11L185.09,148.20L185.07,148.30L185.07,148.40L185.07,148.50L185.09,148.59L185.11,148.69L185.14,148.78L185.19,148.87L185.24,148.95L185.29,149.03L185.36,149.11L185.43,149.17L185.51,149.23L185.60,149.28L185.68,149.32L185.78,149.36L185.87,149.38L185.97,149.39L186.07,149.40L186.17,149.39L186.26,149.38L186.36,149.36L186.45,149.32L186.54,149.28L186.62,149.23L186.70,149.17L186.77,149.11L186.84,149.03L186.90,148.95L186.95,148.87L186.99,148.78L187.02,148.69L187.05,148.59L187.06,148.50z"/></g><g><path style="fill:#ffffa0" d="M194.65,172.81L215.85,172.81L215.85,166.61L194.65,166.61z"/><path style="stroke:#000000;stroke-width:0.088;stroke-opacity:0.98" d="M194.65,172.81L215.85,172.81L215.85,166.61L194.65,166.61z"/><text xml:space="preserve" fill="#000000" stroke-width="0" x="195.43" y="171.07" font-size="3.41" opacity="1.00" font-family="MS Shell Dlg">Vibro motor</text></g></g><g/><g id="paperID" visibility="hidden" opacity="0.00" transform="scale(0.000100)"><path style="stroke:#000000;stroke-width:0.500;fill:#e6e6e6;fill-rule:evenodd" d="M-2000.00,-2000.00L2297.00,-2000.00L2297.00,2210.00L-2000.00,2210.00zM0.00,0.00L297.00,0.00L297.00,210.00L0.00,210.00z"/><path style="fill:#000000;fill-opacity:0.118" d="M3.00,210.00L297.00,210.00L297.00,3.00L300.00,3.00L300.00,213.00L3.00,213.00z"/></g><g id="ToolTip" visibility="hidden" opacity="0" transform="translate(0,0)"><rect id="ToolTipShadow" opacity="0.20" fill="black" stroke="none" x="0" y="0" width="30" height="8"/><rect id="ToolTipBG" fill="#ffffe1" stroke="black" x="0" y="0" width="30" height="8"/><text xml:space="preserve" id="ToolTipText" fill="black" x="0" y="0" width="30" height="8">tooltip</text></g></g></svg>
